<?xml version="1.0" encoding="UTF-8"?>
<!DOCTYPE svg PUBLIC "-//W3C//DTD SVG 1.1//EN" "http://www.w3.org/Graphics/SVG/1.1/DTD/svg11.dtd">
<!-- Creator: CorelDRAW 2019 (64-Bit) -->
<svg xmlns="http://www.w3.org/2000/svg" xml:space="preserve" width="65.295mm" height="15mm" version="1.1" style="shape-rendering:geometricPrecision; text-rendering:geometricPrecision; image-rendering:optimizeQuality; fill-rule:evenodd; clip-rule:evenodd"
viewBox="0 0 3407.91 782.89"
 xmlns:xlink="http://www.w3.org/1999/xlink">
 <defs>
  <style type="text/css">
   <![CDATA[
    .str0 {stroke:#7F7F7F;stroke-width:8.83;stroke-miterlimit:22.9256}
    .fil3 {fill:none}
    .fil4 {fill:#E31E24}
    .fil0 {fill:#404040;fill-rule:nonzero}
    .fil2 {fill:#595959;fill-rule:nonzero}
    .fil1 {fill:#7F7F7F;fill-rule:nonzero}
   ]]>
  </style>
 </defs>
 <g id="Layer_x0020_1">
  <metadata id="CorelCorpID_0Corel-Layer"/>
  <path class="fil0" d="M1056.5 244.35c0.52,-3.61 1.03,-6.7 1.03,-8.25 0,-6.7 -5.67,-10.31 -17.01,-10.31l-71.14 0 -1.55 7.22c7.22,2.58 9.8,5.67 9.8,11.34 0,4.12 -0.52,8.76 -2.58,15.98l-69.08 288.19c-1.54,5.16 -1.54,7.73 -1.54,10.31 0,7.73 4.64,10.82 16.49,10.82l150.54 0c19.59,0 25.78,-4.64 30.42,-24.23l11.85 -48.97 -8.25 0c-7.22,12.89 -10.82,14.95 -26.81,14.95l-86.1 0 63.93 -267.05z"/>
  <path id="1" class="fil0" d="M1214.77 444.9l118.58 0c25.78,0 33.51,-2.58 38.66,-12.37 6.71,-13.92 13.41,-48.46 13.41,-69.6 0,-49.49 -26.29,-70.63 -88.16,-70.63 -56.71,0 -88.16,12.37 -112.91,44.34 -24.23,31.97 -47.43,109.81 -47.43,159.82 0,30.41 11.86,54.13 32.99,64.96 14.44,7.21 37.12,10.82 74.76,10.82 40.73,0 65.99,-3.61 78.88,-10.82 9.8,-5.67 11.86,-9.8 18.56,-37.64l9.28 -37.64 -6.18 0c-16.5,19.59 -35.57,25.78 -82.49,25.78 -23.2,0 -36.61,-2.06 -42.79,-6.7 -8.25,-5.16 -11.86,-13.4 -11.86,-24.23 0,-4.64 1.03,-10.82 2.06,-16.5l4.64 -19.59zm11.86 -45.37c11.34,-43.82 25.26,-57.22 60.32,-57.22 26.29,0 38.66,9.28 38.66,29.38 0,7.22 -1.03,13.92 -4.64,27.84l-94.34 0z"/>
  <path id="2" class="fil0" d="M1537.5 518.62l-6.7 28.36c0,0 -0.52,1.03 -0.52,2.58 -1.03,4.12 -1.54,8.25 -1.54,9.79 0,6.71 5.67,10.31 15.98,10.31l63.93 0 1.55 -5.67c-6.19,-2.06 -9.28,-5.67 -9.28,-10.82 0,-2.58 1.03,-8.25 2.58,-14.95l41.76 -173.74c3.61,-13.92 4.12,-19.07 4.12,-25.78 0,-27.84 -21.65,-43.82 -60.84,-43.82l-117.54 0 -6.19 27.33c-1.54,4.64 -2.06,9.28 -2.06,11.34 0,9.28 5.67,12.89 19.08,12.89l67.02 0c20.62,0 26.29,2.58 26.29,11.34 0,5.16 -2.58,15.47 -4.64,20.62 -4.12,7.73 -7.73,9.28 -21.14,9.28l-52.58 0c-45.37,0 -66.51,11.34 -83.01,43.31 -12.89,24.74 -22.17,59.8 -22.17,85.58 0,39.7 20.62,55.68 70.12,55.68 30.93,0 42.27,-3.61 50.52,-15.98l25.26 -37.64zm2.06 -7.22l-42.28 0c-23.71,0 -32.48,-6.18 -31.96,-20.62 1.03,-16.5 8.76,-38.15 17.01,-46.92 7.73,-8.76 18.56,-12.37 39.7,-12.37l36.09 0 -18.56 79.91z"/>
  <path id="3" class="fil0" d="M1843.74 390.25l76.82 -77.85c4.12,-4.12 6.19,-7.73 6.19,-10.83 0,-4.64 -4.13,-6.7 -11.35,-6.7l-73.72 0 -1.03 5.67c6.18,2.06 8.25,4.12 8.25,7.73 0,3.09 -2.58,7.73 -9.28,14.43l-63.93 67.54 34.02 -141.26c1.03,-5.16 2.06,-10.31 2.06,-12.37 0,-7.21 -5.67,-10.82 -15.98,-10.82l-64.44 0 -1.03 6.18c6.18,1.55 9.28,5.16 9.28,10.31 0,1.54 -0.52,4.12 -1.03,6.18l-1.03 6.19 -0.52 2.58 -69.6 289.74c-1.54,6.18 -2.06,9.28 -2.06,11.86 0,7.22 5.67,10.82 15.98,10.82l63.93 0 1.54 -5.67c-6.18,-2.06 -9.28,-5.15 -9.28,-10.82 0,-2.58 1.03,-8.25 2.58,-14.95l25.78 -106.72 39.18 0c20.1,0 27.32,4.64 27.32,16.5 0,3.1 -1.03,7.73 -2.58,15.99l-20.1 83 -0.52 2.58c-1.03,3.61 -1.54,7.22 -1.54,9.28 0,7.22 5.67,10.82 15.98,10.82l63.93 0 1.55 -5.67c-6.7,-2.06 -9.28,-5.15 -9.28,-10.82 0,-2.58 1.03,-8.25 2.58,-14.95l21.14 -89.19c2.06,-7.73 3.09,-15.46 3.09,-22.17 0,-24.23 -14.95,-36.6 -45.37,-36.6l-17.53 0z"/>
  <path id="4" class="fil0" d="M2074.71 454.18l8.25 -33.51c0.51,-2.58 1.03,-5.67 1.03,-7.73 0,-7.73 -3.61,-9.79 -18.04,-9.79l-92.28 0 -7.73 32.99c-1.03,4.13 -1.54,6.71 -1.54,8.77 0,8.25 2.58,9.28 18.04,9.28l92.28 0z"/>
  <path id="5" class="fil0" d="M2230.4 449.02l58.26 0c73.21,0 100.02,-15.98 120.64,-70.63 10.82,-28.35 19.08,-70.63 19.08,-96.4 0,-19.08 -6.7,-35.06 -18.56,-44.34 -11.34,-8.76 -24.23,-11.86 -52.58,-11.86l-164.98 0 -1.55 7.22c6.7,2.06 9.8,5.67 9.8,12.89 0,3.1 -0.52,6.19 -2.58,14.44l-69.08 288.19c-1.03,4.12 -2.06,7.73 -2.06,10.31 0,7.73 5.16,10.82 17.01,10.82l71.15 0 1.54 -6.7c-6.18,-2.06 -9.28,-6.18 -9.28,-12.37 0,-3.09 0.52,-8.76 2.06,-15.46l21.14 -86.1zm12.89 -54.65l27.84 -117.03 40.21 0c25.26,0 35.57,8.76 35.57,30.42 0,25.26 -14.44,63.93 -27.84,75.27 -10.31,8.77 -23.2,11.34 -53.62,11.34l-22.17 0z"/>
  <path id="6" class="fil0" d="M2483.03 317.04l-54.65 229.93c-1.03,4.12 -2.06,10.31 -2.06,11.86 0,7.22 5.67,10.82 15.98,10.82l63.93 0 1.03 -5.67c-6.18,-2.06 -9.28,-5.15 -9.28,-10.82 0,-2.58 1.03,-8.25 2.58,-14.95l35.57 -146.42c7.73,-33.51 16.5,-41.25 45.88,-41.25l26.81 0c20.62,0 27.32,-4.64 30.93,-19.59l8.76 -36.09 -52.58 0c-17.01,0 -18.56,0.52 -26.81,12.37l-19.59 26.81 4.12 -16.49c1.03,-3.61 2.06,-10.83 2.06,-12.37 0,-6.7 -5.67,-10.31 -15.98,-10.31l-63.41 0 -1.55 5.67c6.19,2.06 9.28,5.16 9.28,10.82 0,2.06 -0.52,4.12 -1.03,5.67z"/>
  <path id="7" class="fil0" d="M2795.96 292.29c-29.9,0 -57.22,1.03 -76.3,7.73 -34.02,11.86 -50.01,33 -69.08,90.22 -13.41,42.28 -22.69,89.19 -22.69,114.45 0,25.26 8.77,43.82 26.81,54.65 15.98,9.28 37.64,12.89 69.08,12.89 71.66,0 110.33,-15.46 130.43,-56.2 20.1,-41.76 40.73,-121.67 40.73,-157.76 0,-47.43 -30.41,-65.99 -98.98,-65.99zm-11.86 50.01c25.26,0 39.18,11.34 39.18,29.38 0,19.08 -11.86,72.69 -22.17,100.53 -13.92,37.64 -30.42,50.01 -62.38,50.01 -25.78,0 -39.18,-11.85 -39.18,-33.51 0,-24.23 14.95,-82.49 28.35,-110.84 10.83,-25.78 27.33,-35.57 56.2,-35.57z"/>
  <path id="8" class="fil0" d="M3079 292.29c-29.9,0 -57.22,1.03 -76.3,7.73 -34.02,11.86 -50.01,33 -69.08,90.22 -13.41,42.28 -22.69,89.19 -22.69,114.45 0,25.26 8.77,43.82 26.81,54.65 15.98,9.28 37.64,12.89 69.08,12.89 71.66,0 110.33,-15.46 130.43,-56.2 20.1,-41.76 40.73,-121.67 40.73,-157.76 0,-47.43 -30.41,-65.99 -98.98,-65.99zm-11.86 50.01c25.26,0 39.18,11.34 39.18,29.38 0,19.08 -11.86,72.69 -22.17,100.53 -13.92,37.64 -30.42,50.01 -62.38,50.01 -25.78,0 -39.18,-11.85 -39.18,-33.51 0,-24.23 14.95,-82.49 28.35,-110.84 10.83,-25.78 27.33,-35.57 56.2,-35.57z"/>
  <path id="9" class="fil0" d="M3407.91 225.79l-90.74 0c-36.6,0 -52.07,15.46 -65.99,62.9 -3.61,12.89 -6.7,14.95 -20.62,14.95l-4.13 0 -11.34 46.91 21.65 0 -46.92 196.43c-1.54,6.18 -2.06,8.76 -2.06,11.86 0,7.22 5.67,10.82 15.98,10.82l63.41 0 1.54 -5.67c-6.18,-2.06 -9.28,-5.15 -9.28,-10.82 0,-2.58 1.03,-8.25 2.58,-14.95l41.24 -169.62c4.13,-18.05 7.73,-20.11 30.42,-20.11l13.92 0c18.56,0 23.2,-3.09 27.33,-18.56l8.25 -35.06 -62.38 0c5.67,-24.23 8.76,-26.29 41.76,-26.29l12.37 0c17.53,0 23.2,-3.61 26.81,-17.53l6.18 -25.26z"/>
  <path class="fil1" d="M1930.06 711.03l-20.13 0 -7.97 -21.01 -37.01 0 -7.67 21.01 -19.76 0 35.83 -92.28 19.74 0 36.97 92.28zm-34.15 -36.6l-12.82 -34.15 -12.46 34.15 25.28 0z"/>
  <path id="1" class="fil1" d="M2000.71 711.03l-17.66 0 0 -34.09c0,-7.21 -0.39,-11.88 -1.14,-13.98 -0.77,-2.12 -1.99,-3.76 -3.72,-4.94 -1.72,-1.18 -3.78,-1.76 -6.18,-1.76 -3.1,0 -5.87,0.84 -8.31,2.52 -2.47,1.68 -4.14,3.91 -5.05,6.65 -0.92,2.77 -1.37,7.89 -1.37,15.36l0 30.25 -17.66 0 0 -66.89 16.37 0 0 9.82c5.86,-7.5 13.23,-11.24 22.15,-11.24 3.91,0 7.49,0.71 10.74,2.11 3.26,1.41 5.72,3.2 7.36,5.37 1.68,2.19 2.84,4.67 3.48,7.43 0.67,2.77 0.99,6.73 0.99,11.88l0 41.52z"/>
  <polygon id="2" class="fil1" points="2054.54,711.03 2054.54,618.75 2122.84,618.75 2122.84,634.34 2073.22,634.34 2073.22,654.83 2119.37,654.83 2119.37,670.43 2073.22,670.43 2073.22,695.43 2124.65,695.43 2124.65,711.03 "/>
  <path id="3" class="fil1" d="M2140.51 618.75l33.98 0c7.67,0 13.51,0.58 17.53,1.76 5.39,1.59 10.03,4.42 13.88,8.5 3.87,4.06 6.79,9.04 8.8,14.95 2,5.89 3.01,13.17 3.01,21.8 0,7.6 -0.94,14.13 -2.83,19.63 -2.3,6.72 -5.58,12.16 -9.86,16.3 -3.22,3.16 -7.58,5.61 -13.06,7.36 -4.1,1.32 -9.58,1.96 -16.46,1.96l-34.99 0 0 -92.28zm18.68 15.6l0 61.09 13.86 0c5.18,0 8.91,-0.3 11.21,-0.88 3.03,-0.75 5.52,-2.04 7.5,-3.84 1.99,-1.81 3.61,-4.77 4.85,-8.89 1.27,-4.13 1.89,-9.78 1.89,-16.91 0,-7.13 -0.62,-12.59 -1.89,-16.41 -1.25,-3.82 -3.01,-6.79 -5.27,-8.94 -2.25,-2.12 -5.11,-3.59 -8.59,-4.34 -2.58,-0.58 -7.67,-0.88 -15.23,-0.88l-8.34 0z"/>
  <path id="4" class="fil1" d="M2233.58 711.03l0 -92.28 39.24 0c9.86,0 17.04,0.84 21.5,2.49 4.49,1.65 8.05,4.59 10.74,8.83 2.68,4.25 4.03,9.09 4.03,14.54 0,6.94 -2.02,12.65 -6.08,17.17 -4.06,4.51 -10.12,7.34 -18.19,8.53 4.01,2.34 7.32,4.92 9.92,7.73 2.62,2.81 6.14,7.82 10.57,14.99l11.26 18 -22.28 0 -13.36 -20.15c-4.79,-7.16 -8.08,-11.67 -9.86,-13.53 -1.76,-1.85 -3.63,-3.14 -5.61,-3.83 -1.99,-0.69 -5.13,-1.03 -9.43,-1.03l-3.78 0 0 38.54 -18.68 0zm18.68 -53.23l13.79 0c8.94,0 14.5,-0.39 16.73,-1.14 2.21,-0.75 3.97,-2.06 5.22,-3.91 1.27,-1.85 1.89,-4.16 1.89,-6.94 0,-3.12 -0.84,-5.61 -2.49,-7.54 -1.65,-1.91 -4,-3.12 -7,-3.61 -1.52,-0.21 -6.06,-0.32 -13.6,-0.32l-14.55 0 0 23.46z"/>
  <path id="5" class="fil1" d="M2405.38 677.13l0 -15.59 40.08 0 0 36.82c-3.89,3.8 -9.54,7.13 -16.95,10.03 -7.39,2.88 -14.89,4.32 -22.49,4.32 -9.65,0 -18.04,-2.02 -25.22,-6.08 -7.15,-4.06 -12.54,-9.88 -16.15,-17.42 -3.61,-7.54 -5.41,-15.76 -5.41,-24.63 0,-9.62 2.02,-18.17 6.04,-25.67 4.04,-7.48 9.92,-13.24 17.68,-17.23 5.93,-3.07 13.27,-4.6 22.08,-4.6 11.45,0 20.41,2.41 26.85,7.22 6.42,4.83 10.57,11.47 12.42,19.98l-18.56 3.48c-1.29,-4.53 -3.74,-8.12 -7.32,-10.76 -3.56,-2.62 -8.03,-3.93 -13.4,-3.93 -8.12,0 -14.59,2.58 -19.38,7.76 -4.79,5.18 -7.19,12.84 -7.19,23.01 0,10.98 2.43,19.2 7.28,24.68 4.87,5.48 11.23,8.23 19.12,8.23 3.89,0 7.8,-0.77 11.71,-2.3 3.93,-1.53 7.28,-3.4 10.09,-5.58l0 -11.71 -21.26 0z"/>
  <path id="6" class="fil1" d="M2479.47 711.03l-17.66 0 0 -66.89 16.37 0 0 9.49c2.81,-4.49 5.35,-7.43 7.6,-8.83 2.25,-1.39 4.81,-2.08 7.67,-2.08 4.04,0 7.93,1.12 11.67,3.33l-5.48 15.42c-2.99,-1.93 -5.76,-2.9 -8.31,-2.9 -2.49,0 -4.6,0.68 -6.32,2.04 -1.72,1.37 -3.07,3.82 -4.06,7.39 -0.99,3.57 -1.48,11.04 -1.48,22.41l0 20.62z"/>
  <path id="7" class="fil1" d="M2508.62 676.77c0,-5.89 1.44,-11.58 4.34,-17.08 2.9,-5.52 7,-9.71 12.31,-12.61 5.31,-2.9 11.22,-4.36 17.77,-4.36 10.12,0 18.39,3.29 24.85,9.86 6.47,6.6 9.69,14.89 9.69,24.94 0,10.14 -3.27,18.53 -9.78,25.19 -6.53,6.66 -14.73,9.99 -24.63,9.99 -6.12,0 -11.97,-1.39 -17.53,-4.16 -5.54,-2.77 -9.77,-6.83 -12.67,-12.2 -2.9,-5.35 -4.34,-11.88 -4.34,-19.57zm18.17 0.94c0,6.63 1.57,11.73 4.7,15.25 3.16,3.54 7.03,5.3 11.64,5.3 4.59,0 8.46,-1.76 11.58,-5.3 3.12,-3.52 4.68,-8.66 4.68,-15.38 0,-6.55 -1.57,-11.6 -4.68,-15.13 -3.12,-3.54 -6.98,-5.3 -11.58,-5.3 -4.62,0 -8.49,1.76 -11.64,5.3 -3.14,3.52 -4.7,8.62 -4.7,15.26z"/>
  <path id="8" class="fil1" d="M2635.68 711.03l0 -10.01c-2.45,3.56 -5.65,6.4 -9.62,8.53 -3.97,2.1 -8.16,3.16 -12.56,3.16 -4.51,0 -8.55,-0.99 -12.12,-2.96 -3.59,-1.98 -6.16,-4.77 -7.75,-8.34 -1.61,-3.59 -2.41,-8.53 -2.41,-14.84l0 -42.42 17.66 0 0 30.8c0,9.43 0.32,15.18 0.99,17.31 0.64,2.12 1.83,3.82 3.56,5.05 1.72,1.25 3.91,1.87 6.58,1.87 3.03,0 5.73,-0.84 8.14,-2.49 2.41,-1.65 4.04,-3.72 4.92,-6.19 0.88,-2.47 1.33,-8.48 1.33,-18.08l0 -28.27 17.66 0 0 66.89 -16.37 0z"/>
  <path id="9" class="fil1" d="M2669.68 644.14l16.5 0 0 9.82c2.15,-3.35 5.03,-6.06 8.68,-8.14 3.65,-2.06 7.71,-3.1 12.16,-3.1 7.76,0 14.35,3.05 19.77,9.15 5.41,6.08 8.12,14.59 8.12,25.46 0,11.19 -2.72,19.87 -8.18,26.08 -5.45,6.21 -12.07,9.3 -19.85,9.3 -3.69,0 -7.05,-0.73 -10.05,-2.21 -2.99,-1.46 -6.16,-3.97 -9.47,-7.54l0 33.47 -17.66 0 0 -92.28zm17.4 32.41c0,7.54 1.48,13.11 4.47,16.71 2.96,3.59 6.59,5.39 10.85,5.39 4.1,0 7.52,-1.65 10.25,-4.96 2.72,-3.31 4.08,-8.72 4.08,-16.26 0,-7.05 -1.4,-12.27 -4.21,-15.68 -2.79,-3.42 -6.27,-5.11 -10.42,-5.11 -4.32,0 -7.91,1.68 -10.74,5.03 -2.85,3.35 -4.27,8.31 -4.27,14.89z"/>
  <path id="10" class="fil1" d="M2843.9 677.01l18.04 5.54c-2.77,10.16 -7.39,17.7 -13.84,22.64 -6.45,4.92 -14.6,7.39 -24.51,7.39 -12.27,0 -22.34,-4.19 -30.25,-12.56 -7.88,-8.38 -11.83,-19.83 -11.83,-34.37 0,-15.36 3.97,-27.3 11.9,-35.81 7.92,-8.51 18.37,-12.76 31.29,-12.76 11.3,0 20.47,3.35 27.52,10.03 4.21,3.95 7.35,9.62 9.45,17.04l-18.43 4.38c-1.1,-4.77 -3.37,-8.55 -6.83,-11.32 -3.48,-2.77 -7.69,-4.14 -12.63,-4.14 -6.85,0 -12.42,2.45 -16.67,7.37 -4.27,4.9 -6.4,12.84 -6.4,23.84 0,11.64 2.1,19.96 6.29,24.9 4.21,4.96 9.67,7.43 16.39,7.43 4.96,0 9.24,-1.57 12.8,-4.72 3.56,-3.16 6.14,-8.1 7.69,-14.86z"/>
  <path id="11" class="fil1" d="M2873.69 676.77c0,-5.89 1.44,-11.58 4.34,-17.08 2.9,-5.52 7,-9.71 12.31,-12.61 5.31,-2.9 11.22,-4.36 17.77,-4.36 10.12,0 18.39,3.29 24.85,9.86 6.47,6.6 9.69,14.89 9.69,24.94 0,10.14 -3.27,18.53 -9.78,25.19 -6.53,6.66 -14.73,9.99 -24.63,9.99 -6.12,0 -11.97,-1.39 -17.53,-4.16 -5.54,-2.77 -9.77,-6.83 -12.67,-12.2 -2.9,-5.35 -4.34,-11.88 -4.34,-19.57zm18.17 0.94c0,6.63 1.57,11.73 4.7,15.25 3.16,3.54 7.03,5.3 11.64,5.3 4.59,0 8.46,-1.76 11.58,-5.3 3.12,-3.52 4.68,-8.66 4.68,-15.38 0,-6.55 -1.57,-11.6 -4.68,-15.13 -3.12,-3.54 -6.98,-5.3 -11.58,-5.3 -4.62,0 -8.49,1.76 -11.64,5.3 -3.14,3.52 -4.7,8.62 -4.7,15.26z"/>
  <path id="12" class="fil1" d="M2955.25 644.14l16.24 0 0 9.13c5.82,-7.03 12.76,-10.55 20.82,-10.55 4.27,0 7.99,0.88 11.12,2.64 3.16,1.76 5.74,4.43 7.73,7.99 2.94,-3.56 6.12,-6.23 9.51,-7.99 3.4,-1.76 7.03,-2.64 10.89,-2.64 4.9,0 9.04,0.99 12.46,2.99 3.39,2 5.93,4.92 7.6,8.79 1.23,2.83 1.83,7.45 1.83,13.83l0 42.7 -17.66 0 0 -38.17c0,-6.63 -0.6,-10.91 -1.83,-12.82 -1.63,-2.51 -4.16,-3.78 -7.56,-3.78 -2.47,0 -4.81,0.75 -7,2.25 -2.17,1.52 -3.76,3.74 -4.73,6.64 -0.97,2.92 -1.44,7.52 -1.44,13.81l0 32.07 -17.66 0 0 -36.6c0,-6.49 -0.32,-10.7 -0.94,-12.57 -0.62,-1.89 -1.59,-3.31 -2.92,-4.23 -1.31,-0.92 -3.11,-1.37 -5.37,-1.37 -2.73,0 -5.18,0.73 -7.35,2.19 -2.19,1.48 -3.74,3.59 -4.68,6.36 -0.94,2.77 -1.42,7.37 -1.42,13.77l0 32.46 -17.66 0 0 -66.89z"/>
  <path id="13" class="fil1" d="M3070.62 644.14l16.5 0 0 9.82c2.15,-3.35 5.03,-6.06 8.68,-8.14 3.65,-2.06 7.71,-3.1 12.16,-3.1 7.76,0 14.35,3.05 19.77,9.15 5.41,6.08 8.12,14.59 8.12,25.46 0,11.19 -2.72,19.87 -8.18,26.08 -5.45,6.21 -12.07,9.3 -19.85,9.3 -3.69,0 -7.05,-0.73 -10.05,-2.21 -2.99,-1.46 -6.16,-3.97 -9.47,-7.54l0 33.47 -17.66 0 0 -92.28zm17.4 32.41c0,7.54 1.48,13.11 4.47,16.71 2.96,3.59 6.59,5.39 10.85,5.39 4.1,0 7.52,-1.65 10.25,-4.96 2.72,-3.31 4.08,-8.72 4.08,-16.26 0,-7.05 -1.4,-12.27 -4.21,-15.68 -2.79,-3.42 -6.27,-5.11 -10.42,-5.11 -4.32,0 -7.91,1.68 -10.74,5.03 -2.85,3.35 -4.27,8.31 -4.27,14.89z"/>
  <path id="14" class="fil1" d="M3163.01 664.76l-15.98 -2.83c1.8,-6.53 4.92,-11.37 9.32,-14.5 4.41,-3.14 10.96,-4.71 19.63,-4.71 7.88,0 13.77,0.92 17.64,2.79 3.84,1.87 6.57,4.23 8.14,7.11 1.57,2.88 2.36,8.14 2.36,15.83l-0.26 20.62c0,5.86 0.28,10.2 0.84,13 0.56,2.79 1.61,5.78 3.16,8.96l-17.53 0c-0.45,-1.16 -1.03,-2.88 -1.7,-5.16 -0.28,-1.05 -0.5,-1.74 -0.63,-2.06 -3.01,2.96 -6.23,5.18 -9.67,6.66 -3.43,1.48 -7.09,2.23 -10.98,2.23 -6.85,0 -12.27,-1.87 -16.22,-5.61 -3.95,-3.72 -5.93,-8.44 -5.93,-14.15 0,-3.76 0.9,-7.13 2.71,-10.1 1.8,-2.94 4.32,-5.22 7.58,-6.79 3.25,-1.57 7.93,-2.94 14.05,-4.13 8.25,-1.54 13.98,-3.01 17.16,-4.34l0 -1.78c0,-3.44 -0.84,-5.89 -2.51,-7.37 -1.7,-1.46 -4.87,-2.19 -9.54,-2.19 -3.16,0 -5.61,0.62 -7.37,1.89 -1.78,1.25 -3.2,3.46 -4.3,6.62zm23.71 14.31c-2.25,0.75 -5.84,1.65 -10.76,2.7 -4.9,1.05 -8.12,2.09 -9.62,3.07 -2.3,1.65 -3.46,3.72 -3.46,6.23 0,2.49 0.92,4.61 2.77,6.42 1.85,1.81 4.19,2.71 7.05,2.71 3.18,0 6.23,-1.05 9.13,-3.14 2.13,-1.61 3.54,-3.54 4.21,-5.87 0.45,-1.5 0.68,-4.38 0.68,-8.61l0 -3.52z"/>
  <path id="15" class="fil1" d="M3282.38 711.03l-17.66 0 0 -34.09c0,-7.21 -0.39,-11.88 -1.14,-13.98 -0.77,-2.12 -1.99,-3.76 -3.72,-4.94 -1.72,-1.18 -3.78,-1.76 -6.18,-1.76 -3.1,0 -5.87,0.84 -8.31,2.52 -2.47,1.68 -4.14,3.91 -5.05,6.65 -0.92,2.77 -1.37,7.89 -1.37,15.36l0 30.25 -17.66 0 0 -66.89 16.37 0 0 9.82c5.86,-7.5 13.23,-11.24 22.15,-11.24 3.91,0 7.49,0.71 10.74,2.11 3.26,1.41 5.72,3.2 7.36,5.37 1.68,2.19 2.84,4.67 3.48,7.43 0.67,2.77 0.99,6.73 0.99,11.88l0 41.52z"/>
  <path id="16" class="fil1" d="M3291.76 644.14l18.82 0 16.05 47.45 15.66 -47.45 18.3 0 -23.59 64.37 -4.25 11.62c-1.57,3.89 -3.05,6.85 -4.47,8.91 -1.4,2.04 -3.03,3.72 -4.85,4.98 -1.83,1.29 -4.08,2.28 -6.77,2.99 -2.66,0.71 -5.69,1.08 -9.07,1.08 -3.39,0 -6.74,-0.37 -10.03,-1.08l-1.54 -13.79c2.77,0.54 5.29,0.81 7.52,0.81 4.12,0 7.17,-1.2 9.15,-3.63 1.97,-2.43 3.5,-5.52 4.55,-9.26l-25.48 -67.02z"/>
  <path class="fil2" d="M2854.27 104.57l-19.06 1.04c-0.43,-5.73 -3.62,-8.6 -9.58,-8.6 -2.44,0 -4.3,0.52 -5.6,1.55 -1.3,1.04 -1.96,2.27 -1.96,3.72 0,1.04 0.54,2.04 1.58,2.99 1.04,0.93 3.54,2.15 7.45,3.62 4.99,1.92 9.02,3.73 12.14,5.43 3.12,1.72 5.66,3.93 7.64,6.66 1.98,2.73 2.97,6.12 2.97,10.2 0,3.84 -1.08,7.41 -3.22,10.73 -2.13,3.3 -5.23,6.03 -9.25,8.18 -4.03,2.13 -9.76,3.21 -17.2,3.21 -10.45,0 -17.88,-2.01 -22.25,-6.02 -4.37,-4.02 -6.57,-9.18 -6.57,-15.46l0 -1.53 19.14 -1.3c0,4.11 0.91,7.01 2.73,8.7 1.81,1.69 4.31,2.55 7.52,2.55 3.24,0 5.71,-0.7 7.4,-2.12 1.71,-1.41 2.55,-3.01 2.55,-4.8 0,-1.35 -0.54,-2.59 -1.62,-3.74 -1.08,-1.14 -3.73,-2.47 -7.95,-3.99 -9.68,-3.48 -15.8,-6.69 -18.37,-9.62 -2.56,-2.94 -3.85,-6.48 -3.85,-10.62 0,-3.78 1.06,-7.21 3.17,-10.34 2.12,-3.12 5.19,-5.52 9.22,-7.25 4.02,-1.72 8.86,-2.58 14.48,-2.58 17.83,0 27.33,6.47 28.47,19.41z"/>
  <polygon id="1" class="fil2" points="2891.03,86.28 2876.91,152.18 2856.29,152.18 2870.4,86.28 "/>
  <polygon id="2" class="fil2" points="2968.18,86.28 2954.02,152.18 2934.96,152.18 2918.63,113.88 2918.46,113.88 2910.27,152.18 2891.12,152.18 2905.28,86.28 2924.34,86.28 2940.58,124.67 2940.76,124.67 2949.03,86.28 "/>
  <path id="3" class="fil2" d="M3038.44 107.9l-18.71 2.11 0 -0.37c0,-3.19 -0.95,-5.58 -2.87,-7.13 -1.92,-1.57 -4.03,-2.35 -6.35,-2.35 -2.99,0 -5.91,1.11 -8.76,3.31 -2.83,2.19 -5.12,5.55 -6.86,10.08 -1.72,4.53 -2.58,8.93 -2.58,13.23 0,3.27 0.89,6 2.66,8.19 1.76,2.21 4.34,3.31 7.73,3.31 3.12,0 5.74,-1 7.89,-2.97 2.13,-1.98 4.02,-5.02 5.65,-9.11l19.06 2.96c-1.98,6.8 -5.81,12.52 -11.49,17.17 -5.68,4.65 -13.07,6.97 -22.19,6.97 -9.5,0 -16.75,-2.53 -21.77,-7.6 -5.02,-5.06 -7.53,-11.8 -7.53,-20.22 0,-6.45 1.49,-12.92 4.48,-19.43 2.98,-6.51 7.34,-11.62 13.06,-15.33 5.73,-3.71 12.58,-5.57 20.59,-5.57 8.3,0 14.85,2.09 19.66,6.24 4.82,4.18 7.6,9.67 8.35,16.5z"/>
  <polygon id="4" class="fil2" points="3107.34,86.28 3104.34,100.44 3070.89,100.44 3068.68,110.91 3100.91,110.91 3097.95,124.27 3065.76,124.27 3062.97,137.16 3099.26,137.16 3096.02,152.18 3039.42,152.18 3053.48,86.28 "/>
  <path id="5" class="fil2" d="M3190.23 85.16l-14.47 67.02 -18.38 0 9.39 -43.38c-5.54,3.44 -12.15,6.09 -19.82,7.95l3.33 -15.59c9.8,-4.26 17.91,-9.59 24.32,-16l15.64 0z"/>
  <path id="6" class="fil2" d="M3237.35 125.39c-4.05,3.39 -8.59,5.08 -13.62,5.08 -5.16,0 -9.55,-1.84 -13.15,-5.51 -3.61,-3.67 -5.42,-8.3 -5.42,-13.92 0,-6.64 2.47,-12.63 7.4,-17.93 4.93,-5.3 11.63,-7.95 20.12,-7.95 7.77,0 13.89,2.37 18.38,7.12 4.5,4.75 6.75,11.15 6.75,19.23 0,6.52 -1.29,13.18 -3.85,19.97 -2.56,6.79 -6.37,12.12 -11.43,16 -5.08,3.88 -11.23,5.82 -18.48,5.82 -6.18,0 -11.22,-1.34 -15.13,-4.01 -3.91,-2.65 -6.31,-6.64 -7.18,-11.95l17.67 -1.65c0.73,4.37 2.82,6.57 6.34,6.57 2.6,0 4.83,-1.32 6.67,-3.96 1.84,-2.64 3.56,-6.89 5.14,-12.72l-0.21 -0.18zm-7.06 -5.98c2.64,0 4.95,-1.26 6.98,-3.79 2.03,-2.53 3.04,-5.93 3.04,-10.19 0,-2.87 -0.63,-5.13 -1.91,-6.76 -1.27,-1.63 -3.13,-2.44 -5.55,-2.44 -2.32,0 -4.59,1.22 -6.84,3.65 -2.24,2.44 -3.36,6.58 -3.36,12.43 0,1.41 0.61,2.95 1.85,4.62 1.25,1.66 3.18,2.49 5.79,2.49z"/>
  <path id="7" class="fil2" d="M3323.7 86.28l-2.56 12.23c-10.55,8.06 -18.68,17 -24.39,26.81 -5.71,9.82 -9.36,18.78 -10.94,26.87l-18.71 0c4.44,-19.33 14.72,-36.16 30.84,-50.53l-30.84 0 3.24 -15.38 53.36 0z"/>
  <path id="8" class="fil2" d="M3329.63 102.19c2.07,-6.08 5.34,-10.45 9.8,-13.07 4.47,-2.64 10.19,-3.96 17.17,-3.96 7.47,0 13.11,1.69 16.91,5.05 3.8,3.38 5.7,7.33 5.7,11.89 0,7.11 -4.14,12.45 -12.41,16.01 5.97,2.91 8.95,7.45 8.95,13.62 0,3.21 -0.92,6.32 -2.78,9.35 -1.87,3.04 -4.77,5.83 -8.75,8.39 -3.97,2.56 -9.65,3.84 -17.01,3.84 -7.82,0 -13.84,-1.71 -18.04,-5.09 -4.22,-3.41 -6.59,-7.89 -7.09,-13.43l17.84 -2.29c0.94,6.38 3.95,9.58 9.04,9.58 2.73,0 4.93,-0.98 6.58,-2.93 1.68,-1.95 2.5,-4.22 2.5,-6.83 0,-2.33 -0.72,-4.3 -2.18,-5.86 -1.46,-1.58 -3.25,-2.36 -5.37,-2.36 -0.78,0 -1.96,0.14 -3.56,0.4l2.3 -12 1.35 0c7.3,0 10.96,-3.23 10.96,-9.67 0,-4.29 -2.17,-6.43 -6.51,-6.43 -4.53,0 -7.36,2.96 -8.5,8.85l-16.91 -3.05z"/>
  <path class="fil0" d="M792.05 64.33c0,7.36 -1.84,14.23 -5.52,20.6 -3.7,6.37 -8.73,11.37 -15.09,15.04 -6.37,3.66 -13.24,5.51 -20.6,5.51 -7.35,0 -14.19,-1.84 -20.56,-5.51 -6.37,-3.66 -11.39,-8.67 -15.09,-15.04 -3.68,-6.37 -5.52,-13.24 -5.52,-20.6 0,-7.33 1.84,-14.19 5.52,-20.58 3.7,-6.37 8.73,-11.39 15.09,-15.06 6.37,-3.66 13.22,-5.5 20.56,-5.5 7.36,0 14.23,1.84 20.6,5.5 6.37,3.66 11.39,8.69 15.09,15.06 3.68,6.39 5.52,13.25 5.52,20.58zm-7.95 0c0,-9.17 -3.24,-16.97 -9.73,-23.47 -6.5,-6.48 -14.34,-9.72 -23.51,-9.72 -9.17,0 -17,3.24 -23.5,9.72 -6.5,6.5 -9.74,14.3 -9.74,23.47 0,9.17 3.24,16.97 9.74,23.47 6.5,6.48 14.34,9.72 23.5,9.72 9.17,0 17.01,-3.24 23.51,-9.72 6.5,-6.5 9.73,-14.3 9.73,-23.47zm-51.91 -22.04l19.7 0c5.57,0 9.61,1.12 12.11,3.37 2.51,2.24 3.76,5.26 3.76,9.06 0,2.94 -0.96,5.5 -2.88,7.66 -1.89,2.15 -4.91,3.72 -9.02,4.69 1.68,0.65 2.93,1.35 3.72,2.06 1.1,1 2.28,2.51 3.5,4.47 0.07,0.15 2.43,4.4 7.1,12.76l-12.92 0c-4.21,-8.39 -7.03,-13.4 -8.47,-15.04 -1.44,-1.64 -2.89,-2.47 -4.33,-2.47 -0.31,0 -0.77,0.06 -1.34,0.17l0 17.34 -10.93 0 0 -44.07zm10.93 18.66l4.75 0c3.15,0 5.38,-0.52 6.68,-1.54 1.29,-1.03 1.93,-2.35 1.93,-3.98 0,-1.62 -0.63,-2.94 -1.86,-3.98 -1.23,-1.03 -3.35,-1.54 -6.33,-1.54l-5.17 0 0 11.04z"/>
  <line class="fil3 str0" x1="885.49" y1="662.44" x2="1799.97" y2= "662.44" />
  <g id="_2319959701888">
   <path class="fil4" d="M344.18 75.54c66.99,10.51 123.65,44.52 165.29,62.83 29.16,12.83 39.21,30.03 50.68,17.24 15.25,-17.05 -17.61,-51.12 -50.76,-66.6 -4.99,-2.33 -2.72,-8.18 2.56,-5.06 35.75,14 77.74,52.39 98.64,91.21 28.56,53.14 44.44,109.65 49.88,140.64 7.75,29 4.46,48.14 21.32,48.22 26.14,0.15 20.72,-73.95 13.75,-96.49 -1.8,-5.79 3.99,-6.98 5.91,-1.8 20.28,46.44 14.27,139.01 -13.07,187.7 -54.98,119.16 -107.37,138.87 -81.62,168.66 23.24,26.91 73.82,-36.41 87.71,-55.37 3.96,-5.38 8.3,-2.6 5.18,2.37 -80.3,128.32 -175.55,140.93 -318.83,121.61 -6.48,-0.88 -8.27,-3.15 -6.32,-9.63l51.62 -173.03c1.52,-5.1 3.38,-6.16 9.14,-6.18l77.32 -0.24c44.95,-0.15 60.26,-22.08 63.87,-34.38l42.07 -143.21c12.77,-51.84 -25.04,-64.77 -43.65,-64.75l-132.26 0.23c-6.29,0 -7.23,0.49 -9.13,6.85l-120.94 404.46c-0.68,2.24 -1.48,5.93 -7.47,5.73 -21.05,-0.66 -18.15,15.14 -0.42,28.24 14.45,10.68 38.17,20.56 59.46,25.84 14.11,3.51 27.67,6.33 42.72,7.27 5.24,-0.37 5.68,2 5.46,3.61 -0.25,1.61 -1.61,2.33 -4.13,2.69 -115.33,-0.18 -187.68,-68.42 -235.04,-151.53 -10.97,-14.55 -29.56,-58.22 -44.45,-54.9 -21.08,-0.29 -16.01,43.21 -11.77,54.83 12.21,33.48 32.39,56.35 37.07,61.86 4.36,6.05 -3.34,9.41 -8.71,1.69 -52.74,-55 -65.49,-130.66 -58.62,-197.17 11.7,-113.16 49.93,-167.2 26.17,-175.62 -17.97,-6.37 -44.69,29.09 -55.18,68.62 -1.86,5.14 -5.45,5.43 -5.07,0.47 3.48,-43.63 48.6,-120.34 114.63,-159.65 50.8,-30.27 100.88,-65.02 95.21,-46.11l-103.44 346.33c-0.66,4.19 -3.2,8.45 6.86,8.49l161.13 0.9c7.15,0.04 11.93,0.39 13.87,-6.1l14.95 -50.22c0.5,-0.72 1.28,-7.02 -4.08,-7.04l-95.33 -0.15c-3.16,0.53 -9.93,-2.04 -7.53,-10.69l93.51 -309.6c2,-6.61 8.43,-6.14 10.37,-10.46 2.14,-4.77 0.92,-11.2 -9.73,-11.77 -38.97,-17.44 -100.96,-12.39 -142.49,13.1 -7.18,3.42 -9.63,-2.2 -6.54,-4.08 17.95,-10.86 73.94,-43.23 150.22,-29.85z"/>
   <path class="fil4" d="M485.93 324.79l43.53 -0.06c12.47,-0.17 17.41,12.87 13.83,25.84l-19.98 68.59c-5.1,14.81 -16.31,20.44 -28,20.05l-39.23 0.16c-5.51,0.08 -8.61,-2.32 -6.5,-8.91l28.34 -94.74c2.08,-6.63 2.58,-10.81 8.01,-10.93z"/>
   <path class="fil4" d="M721.12 505.52c24.68,-0.65 44.4,-5.65 50.6,-20.85 5.63,-13.79 -2.84,-24.44 4.69,-42.89 8.32,-44.85 8.92,-81.8 0.14,-109.22 -2.15,-5.08 -6.97,-4.21 -6.19,1.47 2.22,12.1 1.2,27.23 -2.06,40.31 -13.69,61.55 -30.2,95.47 -48.38,106.5 -6.74,3.72 -12.45,10.69 -11.71,16.45 0.66,5.02 5.39,7.67 12.91,8.22z"/>
   <path class="fil4" d="M718.18 227.44c11.55,-11.67 12.77,-25.48 4.04,-35.5 -2.9,-6.14 -6.09,-11.24 -12.29,-16.89 -19.68,-15.99 -36.7,-37.62 -67.93,-60.77 -10.51,-6.23 -20.6,-11.81 -30.01,-16.51 -4.38,-1.4 -6.68,2.33 -3.16,4.82 13.45,10.51 25.14,21.89 31.94,35.78 3.32,5.97 6.93,12.55 8.83,18.3 1.32,4.02 2.52,6.87 4.43,10.2 2.12,3.73 4.56,6.2 6.76,9.79 2.99,4.84 6.01,10.77 9.13,15.04l17.49 33.25c1.94,3.67 -0.74,7.79 2.1,12.32 6.19,9.65 20.22,-1.27 28.66,-9.83z"/>
   <path class="fil4" d="M359.86 16.38c-0.59,-10.23 -10.97,-14.94 -33.2,-16.38l-9.24 0c-14.2,1 -25.83,6.3 -39.1,8.94 -12.21,2.65 -23.94,5.67 -35.5,9.87 -3.89,1.43 -3.99,5.23 -1.06,5.9 5.13,0.81 9.91,3.12 15.07,3.84 4.6,0.61 8.62,1.55 12.22,2.67 4.03,1.8 10.23,6.06 14.12,8.5 2.92,1.84 16.25,5.27 24.39,2.08 8.15,-3.18 19.32,-3.75 24.44,-3.46 11.77,0.67 29.17,-5.53 27.87,-21.95z"/>
   <path class="fil4" d="M85.62 187.73c-6.69,-10.24 -13.51,-15.81 -20.66,-10.51l-18.75 13.75c-6.72,4.68 -9.89,12.32 -12.89,19.71l-24.7 62.16c-1.76,8.12 2.12,9.22 6,3.06 12.71,-21.46 27.88,-41.41 41.94,-48.03 1.82,-0.96 13.31,-5.54 17.65,-5.09 5.87,0.61 13.27,-0.94 17.33,-5.06 4.29,-5.01 6.39,-10.2 4.19,-15.69 -3.36,-4.55 -6.74,-9.47 -10.11,-14.3z"/>
   <path class="fil4" d="M0.07 472.24c2.62,18.44 9.61,19.18 11.81,23.26 2.21,4.08 10.01,26.25 20.34,38.78l14.37 20.68c7.59,9.63 14.63,13.75 18.71,11.77 4.1,-1.98 1.78,-6.96 -4.06,-15.91 -6.23,-11.34 -11.13,-25.67 -14.65,-42.94 -2.6,-15.11 -2.56,-33.7 -1.7,-50.02 0.84,-16.3 -3.48,-23.91 -8.93,-31.11 -16.89,-13.58 -37.29,17.48 -35.89,45.5z"/>
   <path class="fil4" d="M95.52 673.28c-0.38,9.91 -2.92,26.41 4.73,30.37 7.46,3.31 8.88,1.25 12.25,2.27 3.17,0.98 5.48,7.22 18.79,13.87 10.67,7.31 39.49,11.06 68.05,10.47 11.03,-0.23 19.56,2.95 27.52,6.16 5.33,3.12 7.17,-2.45 2.68,-5.29 -27.42,-9.91 -57.2,-26.93 -76.8,-40.45 -19.37,-13.38 -27.46,-35.03 -37.41,-37.6 -9.97,-2.57 -19.45,10.28 -19.82,20.2z"/>
   <path class="fil4" d="M432.39 761.11c5.83,9.52 14.29,24.19 22.78,21.44 3.94,-1.28 7.55,-3.85 10.89,-5.81 2.99,-1.73 5.92,-2.73 7.03,-3.98 2.24,-2.55 17.66,-7.77 32,-12.6 21.72,-5.57 62.29,-30.56 71.82,-43.25 3.72,-4.98 0.34,-7.55 -4.77,-4.83 -12.79,6.8 -38.55,14.41 -62.67,20.34 -16.61,4.1 -33.09,2.22 -40.49,0.72 -25.7,-5.2 -30.27,-6.53 -37.51,-0.43 -7.23,6.1 -4.89,18.89 0.92,28.42z"/>
  </g>
 </g>
</svg>
