<svg width="149" height="50" viewBox="0 0 149 50" fill="none" xmlns="http://www.w3.org/2000/svg">
<path fill-rule="evenodd" clip-rule="evenodd" d="M41.3424 7.78346C40.2995 6.74064 38.6101 6.74064 37.5673 7.78346C36.5245 8.82629 36.5245 10.5157 37.5673 11.5586C38.6101 12.6014 40.2995 12.6014 41.3424 11.5586C42.3852 10.5157 42.3852 8.82629 41.3424 7.78346Z" fill="#265CA0"/>
<path fill-rule="evenodd" clip-rule="evenodd" d="M7.78309 7.78346C8.82592 6.74064 10.5154 6.74064 11.5582 7.78346C12.601 8.82629 12.601 10.5157 11.5582 11.5586C10.5154 12.6014 8.82592 12.6014 7.78309 11.5586C6.74027 10.5157 6.74027 8.82629 7.78309 7.78346Z" fill="#265CA0"/>
<path fill-rule="evenodd" clip-rule="evenodd" d="M15.7449 0.313904C14.5923 0.313904 13.6489 1.25725 13.6489 2.40984V13.6494H2.40942C1.25682 13.6494 0.313477 14.5927 0.313477 15.7453C0.313477 16.8979 1.25682 17.8412 2.40942 17.8412H15.762H15.7792H15.786H15.7963H15.7998H15.8015H15.8083H15.8101H15.8169H15.8238H15.8306H15.8375H15.8409H15.8461H15.8495H15.8546H15.8581H15.8615H15.8649H15.8667H15.8701H15.8735H15.8769H15.8787H15.8821H15.8855H15.889H15.8924H15.8958H15.901H15.9044H15.9095H15.9164H15.9233H15.9267H15.9318H15.9353H15.9387H15.9421H15.949H15.9507H15.9541H15.9576H15.961H15.9627H15.9678H15.9713H15.9747H15.9781H15.9833H15.9884H15.9936H15.997H16.0022H16.009H16.0124H16.0159H16.0193H16.0227L16.0296 17.8395L16.0365 17.8378H16.0399L16.0879 17.8207H16.0913H16.0948H16.0982V17.8189L16.1033 17.8172H16.1068V17.8155L16.1102 17.8138H16.1136V17.8121L16.1188 17.8087H16.1205V17.8069L16.1239 17.8052H16.1274L16.1685 17.7812H16.1702H16.1737V17.7795H16.1771H16.1805V17.7778H16.1822V17.7761V17.7744V17.7726V17.7709V17.7692V17.7675V17.7658V17.7641V17.7623V17.7606H16.1857L16.1891 17.7555L16.1925 17.7521L16.196 17.7486L16.1994 17.7452L16.2028 17.7418H16.2063L16.2097 17.7383V17.7366V17.7349V17.7332V17.7315V17.7298V17.728V17.7263V17.7246V17.7229H16.2131V17.7195V17.7178H16.2148V17.7143V17.7126V17.7109V17.7092V17.7075V17.7057V17.704V17.7023V17.7006V17.6989H16.2183V17.6955H16.22V17.6937L16.2251 17.6903L16.232 17.6852L16.2491 17.6714L16.256 17.6663V17.6646V17.6629V17.6612V17.6594V17.6577V17.656V17.6543V17.6526V17.6509V17.6491V17.6474V17.6457V17.644V17.6423V17.6406V17.6389V17.6371V17.6354V17.6337V17.632V17.6303V17.6286V17.6268V17.6251V17.6234L16.2611 17.6183H16.2629V17.6166H16.2646L16.2663 17.6131H16.268V17.6114H16.2697V17.6097V17.608V17.6063V17.6046V17.6028V17.6011V17.5994V17.5977V17.596V17.5943V17.5925V17.5908L16.2714 17.5874V17.5857V17.584H16.2731V17.5805L16.2766 17.5771V17.5754H16.2783V17.5737V17.572V17.5702V17.5685V17.5668V17.5651V17.5634V17.5617V17.56V17.5582V17.5565V17.5548V17.5531V17.5514V17.5497V17.5479H16.28V17.5445L16.2834 17.5394H16.2852V17.5359L16.2903 17.5308L16.2937 17.5257H16.2954V17.5239L16.2972 17.5205V17.5188H16.2989V17.5154V17.5136H16.3006V17.5102V17.5085H16.3023L16.304 17.5034H16.3057V17.4999L16.3126 17.4913H16.3143V17.4896L16.3195 17.4845H16.3212V17.4811H16.3229V17.4793V17.4776V17.4759V17.4742V17.4725V17.4708V17.4691V17.4673V17.4656L16.352 17.4313L16.3623 17.4193L16.3709 17.409V17.4073V17.4056V17.4039V17.4022V17.4004V17.3987V17.397V17.3953V17.3936V17.3919V17.3902V17.3884V17.3867V17.385V17.3833V17.3816V17.3799V17.3764C16.3812 17.3627 16.3915 17.349 16.4001 17.3353L16.4018 17.3318H16.4035V17.3301V17.3284V17.325V17.3233V17.3215V17.3181V17.3164V17.313V17.3095V17.3078V17.3044V17.3027V17.2992V17.2975V17.2941V17.2907L16.4258 17.2581V17.2547V17.2512V17.2478V17.2444V17.2409H16.4275V17.2375L16.4309 17.2324V17.2289H16.4327V17.2255V17.2221V17.2186V17.2169V17.2135V17.2101V17.2066V17.2032V17.1998V17.1963V17.1929H16.4361V17.1895V17.186H16.4378V17.1826V17.1792V17.1758V17.1723V17.1689V17.1655V17.162V17.1586V17.1552V17.1517V17.1483V17.1449V17.1415V17.138V17.1346V17.1312V17.1277V17.1243V17.1209V17.1174V17.114V17.1106V17.1072V17.1037V17.1003V17.0969V17.0934L16.4498 17.0677V17.0643V17.0608V17.0574V17.054V17.0506V17.0471L16.4687 17.0077L16.4738 16.9957V16.9922L16.4755 16.9854V16.9802V16.9768V16.9734V16.9699L16.4773 16.9631V16.9579H16.479V16.9545V16.9511L16.4824 16.9425V16.9391V16.9356L16.4858 16.9288L16.4875 16.9236V16.9185H16.4893V16.9133H16.491V16.9099V16.9065V16.903V16.8996V16.8945L16.4927 16.8876V16.8842V16.8807L16.5098 16.8327L16.515 16.8156V16.8121V16.8087L16.5167 16.8053V16.8018V16.7984V16.795V16.7916L16.5184 16.7881V16.7847L16.5201 16.7813L16.5339 16.735V16.7315V16.7281V16.7247V16.7212L16.5356 16.7178V16.7127V16.7058V16.6989H16.5373V16.6921V16.6886V16.6835L16.539 16.6801V16.6766V16.6732V16.6646V16.6561H16.5407L16.5441 16.6458V16.6423V16.6389V16.6355V16.632L16.5544 16.5875V16.584V16.5806V16.5772V16.5703V16.5617V16.5549V16.5497V16.5463V16.5411V16.5377V16.5343V16.5326V16.524V16.5206V16.5171V16.5137V16.5103V16.5034V16.4983V16.4948V16.4897V16.4863V16.4828V16.4777V16.4743V16.4708V16.4674V16.4657V16.4622V16.4605V16.4571V16.4537V16.4502V16.4468V16.4434V16.4399V16.4365V16.4331V16.4297V16.4262V16.4228V16.4194V16.4159V16.4125V16.4091V16.4056V16.3988V16.3954V16.3919V16.3885V16.3868V16.3833V16.3799V16.3765V16.3645V16.3611V16.3576V16.3559V16.3525V16.349V16.3456V16.3422V16.3388V16.3353V16.3319V16.3285V16.325V16.3216V16.3182V16.3147V16.3096V16.3044V16.301V16.2924V16.2856V16.2701V16.2633V16.2564V16.2496V16.2427V16.2393V16.2307V16.2273V16.2238V16.2204V2.40984C16.5544 1.25725 15.6111 0.313904 14.4585 0.313904" fill="#265CA0"/>
<path fill-rule="evenodd" clip-rule="evenodd" d="M24.5626 8.2963L31.7098 1.14746C31.4422 1.49907 31.2844 1.93644 31.2844 2.40983V7.50046L26.0445 12.742C26.0325 12.754 26.0188 12.7677 26.0068 12.7798C25.9931 12.7918 25.9811 12.8038 25.9674 12.8158C25.9536 12.8278 25.9399 12.8398 25.9279 12.8501C25.9142 12.8621 25.9005 12.8724 25.8867 12.8844C25.873 12.8947 25.8593 12.9067 25.8456 12.917C25.8319 12.9273 25.8181 12.9376 25.8044 12.9478C25.7907 12.9581 25.7753 12.9684 25.7615 12.9787C25.7478 12.989 25.7324 12.9976 25.7187 13.0079C25.7049 13.0182 25.6895 13.0267 25.6741 13.0353C25.6586 13.0439 25.6449 13.0542 25.6295 13.0628C25.614 13.0713 25.6003 13.0799 25.5849 13.0885C25.5694 13.0971 25.554 13.1056 25.5403 13.1125C25.5248 13.1211 25.5094 13.1279 25.494 13.1365L25.4477 13.1588C25.4322 13.1657 25.4168 13.1725 25.4014 13.1794C25.3859 13.1863 25.3705 13.1931 25.3533 13.1983C25.3379 13.2051 25.3225 13.2103 25.3053 13.2171C25.2899 13.2223 25.2727 13.2291 25.2573 13.2343C25.2418 13.2394 25.2247 13.2446 25.2093 13.2497L25.1612 13.2651C25.1458 13.2703 25.1286 13.2737 25.1115 13.2789C25.0961 13.284 25.0789 13.2874 25.0618 13.2909C25.0446 13.2943 25.0292 13.2995 25.012 13.3029C24.9949 13.3063 24.9794 13.3097 24.9623 13.3132C24.9451 13.3166 24.9297 13.3183 24.9125 13.3217C24.8954 13.3252 24.8799 13.3269 24.8628 13.3303C24.8456 13.332 24.8302 13.3355 24.8131 13.3372C24.7959 13.3389 24.7805 13.3406 24.7633 13.3423C24.7462 13.3423 24.7307 13.3458 24.7136 13.3458C24.6964 13.3458 24.681 13.3475 24.6638 13.3492C24.6467 13.3492 24.6295 13.3492 24.6141 13.3509C24.5969 13.3509 24.5798 13.3509 24.5644 13.3509C24.5489 13.3509 24.53 13.3509 24.5146 13.3509C24.4975 13.3509 24.4803 13.3509 24.4649 13.3492C24.4477 13.3492 24.4323 13.3475 24.4151 13.3458C24.398 13.3458 24.3808 13.344 24.3654 13.3423C24.3482 13.3423 24.3311 13.3389 24.3157 13.3372C24.2985 13.3355 24.2831 13.3338 24.2659 13.3303C24.2488 13.3286 24.2333 13.3252 24.2162 13.3217C24.199 13.3183 24.1836 13.3166 24.1664 13.3132C24.1493 13.3097 24.1338 13.3063 24.1167 13.3029C24.0995 13.2995 24.0841 13.296 24.067 13.2909C24.0498 13.2874 24.0344 13.2823 24.0172 13.2789C24.0018 13.2737 23.9846 13.2703 23.9692 13.2651L23.9212 13.2497C23.9057 13.2446 23.8886 13.2394 23.8731 13.2343C23.8577 13.2291 23.8405 13.2223 23.8251 13.2171C23.8097 13.212 23.7942 13.2051 23.7771 13.1983C23.7617 13.1914 23.7462 13.1845 23.7308 13.1794C23.7153 13.1725 23.6999 13.1657 23.6845 13.1588L23.6382 13.1365C23.6227 13.1296 23.6073 13.1211 23.5918 13.1125C23.5764 13.1039 23.561 13.0971 23.5473 13.0885C23.5318 13.0799 23.5164 13.0713 23.5027 13.0628C23.4872 13.0542 23.4735 13.0456 23.4581 13.0353C23.4426 13.0267 23.4289 13.0164 23.4135 13.0079C23.3997 12.9993 23.3843 12.989 23.3706 12.9787C23.3569 12.9684 23.3414 12.9581 23.3277 12.9478C23.314 12.9376 23.3003 12.9273 23.2865 12.917C23.2728 12.9067 23.2591 12.8947 23.2454 12.8844C23.2317 12.8724 23.2179 12.8621 23.2042 12.8501C23.1905 12.8381 23.1768 12.8261 23.1648 12.8158C23.151 12.8038 23.139 12.7918 23.1253 12.7798C23.1116 12.7677 23.0996 12.754 23.0859 12.742L17.8443 7.50046V2.40983C17.8443 1.93644 17.6865 1.49907 17.4189 1.14746L24.5661 8.29458L24.5626 8.2963Z" fill="#265CA0"/>
<path fill-rule="evenodd" clip-rule="evenodd" d="M33.3811 0.313904C34.5337 0.313904 35.4771 1.25725 35.4771 2.40984V13.6494H46.7166C47.8692 13.6494 48.8125 14.5927 48.8125 15.7453C48.8125 16.8979 47.8692 17.8412 46.7166 17.8412H33.364H33.3468H33.34H33.3297H33.3262H33.3245H33.3177H33.3159H33.3091H33.3022H33.2954H33.2885H33.2851H33.2799H33.2765H33.2713H33.2679H33.2645H33.2611H33.2576H33.2542H33.2508H33.249H33.2456H33.2422H33.2388H33.2353H33.2319H33.2267H33.225H33.2216H33.2165H33.2096H33.2027H33.1993H33.1942H33.1907H33.1873H33.1839H33.177H33.1753H33.1719H33.1684H33.165H33.1599H33.1564H33.153H33.1496H33.1478H33.1444H33.1393H33.1341H33.129H33.1256H33.1204H33.1135H33.1101H33.1067H33.1033H33.0998L33.093 17.8395L33.0861 17.8378H33.0827L33.0347 17.8207H33.0312H33.0278H33.0244V17.8189L33.0192 17.8172H33.0158V17.8155L33.0124 17.8138H33.0089V17.8121L33.0038 17.8087H33.0003V17.8069L32.9969 17.8052H32.9935L32.9523 17.7812H32.9506H32.9472V17.7795H32.9437L32.9403 17.7761V17.7744H32.9369V17.7726V17.7709V17.7692V17.7675V17.7658V17.7641V17.7623V17.7606V17.7589V17.7572H32.9335L32.93 17.7521L32.9266 17.7486L32.9232 17.7452L32.9197 17.7418L32.9163 17.7383H32.9129L32.9112 17.7349V17.7332V17.7315V17.7298V17.728V17.7263V17.7246V17.7229V17.7212V17.7195H32.9094V17.716V17.7143H32.906V17.7109V17.7092V17.7075V17.7057V17.704V17.7023V17.7006V17.6989V17.6972V17.6955H32.9026V17.692H32.9009V17.6903L32.8957 17.6869L32.8889 17.6817L32.8717 17.668L32.8648 17.6629V17.6612V17.6594V17.6577V17.656V17.6543V17.6526V17.6509V17.6491V17.6474V17.6457V17.644V17.6423V17.6406V17.6389V17.6371V17.6354V17.6337V17.632V17.6303V17.6286V17.6268V17.6251V17.6234V17.6217V17.62L32.8597 17.6148H32.858V17.6131H32.8563V17.6114H32.8546V17.6097H32.8528V17.608H32.8511V17.6046V17.6028V17.6011V17.5994V17.5977V17.596V17.5943V17.5925V17.5908V17.5891V17.5874L32.8494 17.584V17.5823H32.8477V17.5788L32.8443 17.5754V17.5737H32.8425V17.572V17.5702V17.5685V17.5668V17.5651V17.5634V17.5617V17.56V17.5582V17.5565V17.5548V17.5531V17.5514V17.5497V17.5479V17.5462V17.5445H32.8408V17.5428L32.8374 17.5377H32.8357V17.5342L32.8305 17.5291L32.8271 17.5239L32.8254 17.5205H32.8237V17.5171V17.5154H32.822V17.5136V17.5119H32.8203V17.5085V17.5068V17.5051H32.8185L32.8168 17.4999H32.8151V17.4965L32.8082 17.4879H32.8065L32.8014 17.4793H32.7997V17.4776H32.798V17.4759V17.4742V17.4725V17.4708V17.4691V17.4673V17.4656V17.4639V17.4622L32.7688 17.4279L32.7585 17.4159L32.7499 17.4056V17.4039V17.4022V17.4004V17.3987V17.397V17.3953V17.3936V17.3919V17.3902V17.3884V17.3867V17.385V17.3833V17.3816V17.3799V17.3781V17.3764V17.373V17.3713V17.3696C32.7396 17.3558 32.7293 17.3421 32.7208 17.3284L32.7191 17.325H32.7173L32.7156 17.3198V17.3164V17.3147V17.313V17.3095V17.3078V17.3044V17.301V17.2992V17.2958V17.2924V17.2907V17.289V17.2855V17.2838L32.6933 17.2495V17.2461V17.2426V17.2392V17.2375V17.2341V17.2306V17.2272L32.6899 17.2221V17.2186H32.6882V17.2152V17.2118V17.2083V17.2066V17.2032V17.1998V17.1963V17.1929V17.1895V17.186V17.1826H32.6848V17.1792H32.683V17.1758V17.1723V17.1689V17.1655V17.162V17.1586V17.1552V17.1517V17.1483V17.1449V17.1415V17.138V17.1346V17.1312V17.1277V17.1243V17.1209V17.1174V17.114V17.1106V17.1072V17.1037V17.1003V17.0969L32.6693 17.0711V17.0677V17.0643V17.0608V17.0574V17.054V17.0506L32.6505 17.0111L32.6453 16.9991V16.9957L32.6419 16.9888V16.9837V16.9802V16.9768L32.6402 16.9717V16.9665H32.6384V16.9631V16.9596L32.635 16.9511V16.9476V16.9442L32.6316 16.9373L32.6299 16.9322V16.9271H32.6282V16.9219H32.6264V16.9185V16.9151V16.9116V16.9082V16.9048V16.9013L32.6247 16.8945V16.891L32.6076 16.843L32.6024 16.8259V16.8224V16.819V16.8156V16.8121V16.8087L32.6007 16.8053V16.8018L32.599 16.7984V16.795V16.7916L32.5853 16.747V16.7435V16.7401V16.7367V16.7332V16.7298V16.7247V16.7178V16.7109L32.5818 16.7041V16.7007V16.6955L32.5801 16.6921V16.6886V16.6852V16.6766V16.6681H32.5784L32.575 16.6578V16.6543V16.6509V16.6475V16.6441L32.5664 16.5995V16.596V16.5926V16.5892V16.5857V16.5789V16.5703V16.5634V16.5583V16.5549V16.5497V16.5463V16.5429V16.5411V16.5326V16.5291V16.5257V16.5223V16.5188V16.512V16.5068V16.5034V16.5V16.4965V16.4931V16.4897V16.4845V16.4811V16.4777V16.4743V16.4725V16.4691V16.4674V16.464V16.4605V16.4571V16.4537V16.4502V16.4468V16.4434V16.4399V16.4365V16.4331V16.4297V16.4262V16.4228V16.4194V16.4159V16.4125V16.4091V16.4056V16.4022V16.3988V16.3954V16.3919V16.3902V16.3868V16.3833V16.3799V16.3696V16.3662V16.3628V16.3593V16.3559V16.3525V16.349V16.3456V16.3422V16.3388V16.3353V16.3319V16.3285V16.325V16.3216V16.3165V16.313V16.3096V16.301V16.2942V16.2787V16.2719V16.2667V16.2599V16.253V16.2496V16.241V16.2376V16.2341V16.2307V2.40984C32.5664 1.25725 33.5098 0.313904 34.6623 0.313904" fill="#265CA0"/>
<path fill-rule="evenodd" clip-rule="evenodd" d="M24.5633 6.10352e-05C23.09 6.10352e-05 21.8945 1.19554 21.8945 2.66887C21.8945 4.1422 23.09 5.33768 24.5633 5.33768C26.0367 5.33768 27.2321 4.1422 27.2321 2.66887C27.2321 1.19554 26.0367 6.10352e-05 24.5633 6.10352e-05Z" fill="#265CA0"/>
<path fill-rule="evenodd" clip-rule="evenodd" d="M24.5631 40.8314L17.416 47.9785C17.6836 47.6269 17.8414 47.1896 17.8414 46.7162V41.6255L23.0812 36.384C23.095 36.372 23.107 36.3582 23.1207 36.3462C23.1327 36.3342 23.1464 36.3222 23.1601 36.3102C23.1738 36.2982 23.1876 36.2862 23.1996 36.2742C23.2133 36.2622 23.227 36.2519 23.2407 36.2399C23.2545 36.2296 23.2682 36.2176 23.2819 36.2073C23.2956 36.197 23.3093 36.1867 23.3231 36.1764C23.3368 36.1661 23.3522 36.1559 23.3659 36.1456C23.3797 36.1353 23.3951 36.1267 23.4088 36.1164C23.4243 36.1061 23.438 36.0975 23.4534 36.089C23.4689 36.0804 23.4826 36.0701 23.498 36.0615C23.5135 36.0529 23.5289 36.0444 23.5426 36.0358C23.558 36.0272 23.5735 36.0186 23.5872 36.0118C23.6026 36.0032 23.6181 35.9963 23.6335 35.9878L23.6798 35.9655C23.6953 35.9586 23.7107 35.9518 23.7261 35.9449C23.7416 35.938 23.757 35.9312 23.7724 35.926C23.7879 35.9192 23.8033 35.914 23.8205 35.9072C23.8359 35.902 23.8531 35.8952 23.8685 35.89C23.8839 35.8849 23.9011 35.8797 23.9165 35.8746L23.9645 35.8591C23.98 35.854 23.9971 35.8506 24.0126 35.8454C24.028 35.8403 24.0452 35.8368 24.0623 35.8334C24.0795 35.83 24.0949 35.8248 24.112 35.8214C24.1292 35.818 24.1446 35.8145 24.1618 35.8111C24.1772 35.8077 24.1944 35.8042 24.2115 35.8025C24.2287 35.7991 24.2441 35.7974 24.2613 35.794C24.2784 35.7922 24.2939 35.7888 24.311 35.7871C24.3282 35.7854 24.3436 35.7837 24.3607 35.782C24.3779 35.782 24.3933 35.7785 24.4105 35.7785C24.4276 35.7785 24.4431 35.7768 24.4602 35.7751C24.4774 35.7751 24.4945 35.7751 24.51 35.7734C24.5271 35.7734 24.5443 35.7734 24.5597 35.7734C24.5751 35.7734 24.5923 35.7734 24.6094 35.7734C24.6266 35.7734 24.6438 35.7734 24.6592 35.7751C24.6763 35.7751 24.6918 35.7768 24.7089 35.7785C24.7261 35.7785 24.7415 35.7802 24.7587 35.782C24.7758 35.782 24.7913 35.7854 24.8084 35.7871C24.8256 35.7888 24.841 35.7905 24.8581 35.794C24.8753 35.7957 24.8907 35.7991 24.9079 35.8025C24.925 35.806 24.9405 35.8077 24.9576 35.8111C24.9748 35.8145 24.9902 35.818 25.0074 35.8214C25.0245 35.8248 25.04 35.8283 25.0571 35.8334C25.0743 35.8368 25.0897 35.842 25.1068 35.8454C25.1223 35.8506 25.1394 35.854 25.1566 35.8591L25.2046 35.8746C25.22 35.8797 25.2372 35.8849 25.2526 35.89C25.2681 35.8952 25.2852 35.902 25.3007 35.9072C25.3161 35.9123 25.3315 35.9192 25.3487 35.926C25.3641 35.9329 25.3796 35.938 25.3967 35.9449C25.4121 35.9518 25.4276 35.9586 25.443 35.9655L25.4893 35.9878C25.5048 35.9946 25.5202 36.0032 25.5356 36.0118C25.5511 36.0204 25.5665 36.0272 25.5802 36.0358C25.5957 36.0444 25.6111 36.0529 25.6248 36.0615C25.6403 36.0701 25.654 36.0787 25.6694 36.089C25.6849 36.0975 25.6986 36.1078 25.714 36.1164C25.7277 36.1267 25.7432 36.1353 25.7569 36.1456C25.7706 36.1559 25.7861 36.1661 25.7998 36.1764C25.8135 36.1867 25.8272 36.197 25.8409 36.2073C25.8547 36.2176 25.8684 36.2296 25.8821 36.2399C25.8958 36.2519 25.9095 36.2622 25.9233 36.2742C25.937 36.2862 25.9507 36.2982 25.9627 36.3102C25.9764 36.3222 25.9884 36.3342 26.0022 36.3462C26.0159 36.3582 26.0279 36.3703 26.0399 36.384L31.2815 41.6255V46.7162C31.2815 47.1896 31.4393 47.6269 31.7068 47.9785L24.5597 40.8314H24.5631Z" fill="#265CA0"/>
<path fill-rule="evenodd" clip-rule="evenodd" d="M41.3424 41.3425C40.2995 42.3854 38.6101 42.3854 37.5673 41.3425C36.5245 40.2997 36.5245 38.6103 37.5673 37.5675C38.6101 36.5246 40.2995 36.5246 41.3424 37.5675C42.3852 38.6103 42.3852 40.2997 41.3424 41.3425Z" fill="#265CA0"/>
<path fill-rule="evenodd" clip-rule="evenodd" d="M7.78309 41.3425C8.82592 42.3854 10.5154 42.3854 11.5582 41.3425C12.601 40.2997 12.601 38.6103 11.5582 37.5675C10.5154 36.5246 8.82592 36.5246 7.78309 37.5675C6.74027 38.6103 6.74027 40.2997 7.78309 41.3425Z" fill="#265CA0"/>
<path fill-rule="evenodd" clip-rule="evenodd" d="M15.7449 48.8121C14.5923 48.8121 13.6489 47.8687 13.6489 46.7161V35.4766H2.40942C1.25682 35.4766 0.313477 34.5333 0.313477 33.3807C0.313477 32.2281 1.25682 31.2847 2.40942 31.2847H15.762H15.7792H15.786H15.7963H15.7998H15.8066H15.8083H15.8135H15.8169H15.8203H15.8238H15.8272H15.8306H15.8392H15.8426H15.8478H15.8512H15.8564H15.8598H15.8632H15.8667H15.8701H15.8718H15.8752H15.8787H15.8821H15.8838H15.8872H15.8907H15.8941H15.8975H15.901H15.9061H15.913H15.9198H15.9233H15.9284H15.9318H15.9353H15.9387H15.9456H15.9473H15.9507H15.9541H15.9576H15.9593H15.9644H15.9678H15.9713H15.9747H15.9799H15.985H15.9901H15.9936H15.9987H16.0056H16.009H16.0124H16.0159H16.0193H16.0262V31.2864H16.033V31.2882H16.0365L16.0845 31.3053H16.0879H16.0913H16.0948V31.307H16.0999V31.3087H16.1033V31.3105L16.1068 31.3122H16.1102V31.3139L16.1154 31.3173H16.1171V31.319L16.1205 31.3207H16.1239L16.1651 31.3448H16.1668H16.1702V31.3465H16.1737H16.1771V31.3482H16.1788V31.3499V31.3516V31.3533V31.3551V31.3568V31.3585V31.3602V31.3619V31.3636H16.1822L16.1857 31.3688L16.1891 31.3722L16.1925 31.3756L16.196 31.3791H16.1994V31.3808H16.2011L16.2045 31.3842V31.3859V31.3876V31.3894V31.3911V31.3928V31.3945V31.3962V31.3979V31.3996H16.208V31.4031V31.4048H16.2097V31.4082V31.4099V31.4117V31.4134V31.4151V31.4168V31.4185V31.4202V31.4219V31.4237H16.2131V31.4271H16.2148V31.4288L16.22 31.4322L16.2268 31.4374L16.244 31.4511L16.2509 31.4562V31.458V31.4597V31.4614V31.4631V31.4648V31.4665V31.4683V31.47V31.4717V31.4734V31.4751V31.4768V31.4785V31.4803V31.482V31.4837V31.4854V31.4871V31.4888V31.4906V31.4923V31.494V31.4957V31.4974V31.4991L16.256 31.5026H16.2577V31.5043H16.2594L16.2611 31.5077H16.2629V31.5094H16.2646V31.5111V31.5128V31.5146V31.5163V31.518V31.5197V31.5214V31.5231V31.5249V31.5266V31.5283V31.53L16.2663 31.5334V31.5351V31.5369H16.268V31.5403L16.2714 31.5437V31.5454H16.2731V31.5472V31.5489V31.5506V31.5523V31.554V31.5557V31.5574V31.5592V31.5609V31.5626V31.5643V31.566V31.5677V31.5694V31.5712V31.5729H16.2749V31.5763L16.2783 31.5815H16.28V31.5849L16.2852 31.59L16.2886 31.5952H16.2903V31.5969L16.292 31.6003V31.602H16.2937V31.6055V31.6072H16.2954V31.6106V31.6123H16.2972L16.2989 31.6175H16.3006V31.6209L16.3075 31.6295H16.3092V31.6312L16.3143 31.6363H16.316V31.6398H16.3177V31.6415V31.6432V31.6449V31.6466V31.6483V31.6501V31.6518V31.6535V31.6552L16.3469 31.6895L16.3572 31.7015L16.3658 31.7118V31.7135V31.7152V31.717V31.7187V31.7204V31.7221V31.7238V31.7255V31.7272V31.7307V31.7324V31.7341V31.7358V31.7375V31.7393V31.741V31.7427V31.7444C16.3761 31.7581 16.3863 31.7718 16.3949 31.7856L16.3966 31.789H16.3984V31.7907V31.7924V31.7941V31.7976V31.7993V31.8027V31.8044V31.8061V31.8096V31.8113V31.8147V31.8164V31.8199V31.8216V31.825V31.8267L16.4207 31.8593V31.8627V31.8662V31.8696V31.873V31.8765H16.4224V31.8799L16.4258 31.885L16.4275 31.8885V31.8919V31.8936V31.897V31.9005V31.9039V31.9073V31.9108V31.9142V31.9176V31.9211V31.9245H16.4309V31.9279V31.9313H16.4327V31.9348V31.9382V31.9416V31.9451V31.9485V31.9519V31.9554V31.9571V31.9605V31.9639V31.9674V31.9708V31.9742V31.9777V31.9811V31.9845V31.988V31.9914V31.9931V31.9965V32V32.0034V32.0068V32.0102V32.0137V32.0171V32.0205L16.4447 32.0463V32.0497V32.0531V32.0566V32.06V32.0634V32.0668L16.4635 32.1063L16.4687 32.1183V32.1217L16.4704 32.1286V32.132V32.1355V32.1389V32.1423L16.4721 32.1492V32.1543H16.4738V32.1578V32.1612L16.4773 32.1698V32.1732V32.1766L16.4807 32.1835L16.4824 32.1886V32.1938H16.4841V32.1989H16.4858V32.2023V32.2058V32.2092V32.2126V32.2178L16.4875 32.2229V32.2264V32.2298L16.5047 32.2778L16.5098 32.295V32.2984V32.3018L16.5116 32.3053V32.3087V32.3121V32.3155V32.319L16.5133 32.3224V32.3258L16.515 32.3293L16.5287 32.3756V32.379V32.3824V32.3876V32.391V32.3944V32.3996V32.4065V32.4133H16.5304V32.4202V32.4236L16.5321 32.4288V32.4322V32.4356V32.439V32.4442V32.451L16.5339 32.4596L16.5373 32.4699V32.4733V32.4768V32.4802L16.5476 32.5248V32.5282V32.5299V32.5334V32.5368V32.5437V32.554V32.5608V32.566V32.5694V32.5728V32.5763V32.5797V32.5848V32.5865V32.5951V32.5986V32.602V32.6054V32.6088V32.6157V32.6208V32.6243V32.6294V32.6329V32.6363V32.6414V32.6449V32.6483V32.6517V32.6552V32.6586V32.662V32.6654V32.6689V32.6723V32.6757V32.6792V32.6826V32.686V32.6895V32.6929V32.6963V32.6997V32.7032V32.7049V32.7083V32.7118V32.7152V32.722V32.7255V32.7272V32.7306V32.7341V32.7375V32.7409V32.7443V32.7563V32.7598V32.7632V32.7649V32.7684V32.7718V32.7752V32.7786V32.7821V32.7838V32.7872V32.7906V32.7941V32.7975V32.8009V32.8044V32.8095V32.8147V32.8181V32.8284V32.8352V32.8507V32.8575V32.8644V32.8713V32.8781V32.8816V32.8901V32.8936V32.897V32.9004V32.9039V46.2393C16.5476 47.3919 15.6042 48.3353 14.4516 48.3353" fill="#265CA0"/>
<path fill-rule="evenodd" clip-rule="evenodd" d="M33.3808 48.8121C34.5334 48.8121 35.4768 47.8687 35.4768 46.7161V35.4766H46.7163C47.8689 35.4766 48.8122 34.5333 48.8122 33.3807C48.8122 32.2281 47.8689 31.2847 46.7163 31.2847H33.3637H33.3465H33.3397H33.3294H33.3259H33.3191H33.3174H33.3122H33.3088H33.3054H33.3036H33.3002H33.2968H33.2934H33.2848H33.2813H33.2762H33.2728H33.2676H33.2642H33.2608H33.2573H33.2556H33.2522H33.2488H33.2453H33.2436H33.2402H33.2368H33.2333H33.2299H33.2282H33.2247H33.2196H33.2127H33.2059H33.2024H33.1973H33.1939H33.1904H33.187H33.1801H33.1767H33.1733H33.1699H33.1647H33.1613H33.1579H33.1544H33.1493H33.1441H33.139H33.1356H33.1304H33.1235H33.1201H33.1167H33.1133H33.1098H33.103V31.2864H33.0961V31.2882H33.0927L33.0447 31.3053H33.0412H33.0378H33.0344V31.307L33.0292 31.3105H33.0258V31.3122L33.0224 31.3139H33.0189V31.3156L33.0138 31.319H33.0103V31.3207L33.0069 31.3225H33.0035L32.9623 31.3465H32.9606H32.9572V31.3482H32.9537L32.9503 31.3516V31.3533H32.9469V31.3551V31.3568V31.3585V31.3602V31.3619V31.3636V31.3653V31.3671V31.3688H32.9435L32.94 31.3739L32.9366 31.3773L32.9332 31.3808L32.9297 31.3842H32.9263V31.3859H32.9246L32.9229 31.3894V31.3911V31.3928V31.3945V31.3962V31.3979V31.3996V31.4014V31.4031V31.4048H32.9212V31.4082V31.4099H32.9177V31.4134V31.4151V31.4168V31.4185V31.4202V31.4219V31.4237V31.4254V31.4271V31.4288H32.9143V31.4322H32.9126V31.434L32.9074 31.4374L32.9006 31.4425L32.8834 31.4562L32.8766 31.4614V31.4631V31.4648V31.4665V31.4683V31.47V31.4717V31.4734V31.4751V31.4768V31.4785V31.4803V31.482V31.4837V31.4854V31.4871V31.4888V31.4906V31.4923V31.494V31.4957V31.4974V31.4991V31.5008V31.5026V31.5043L32.8714 31.5077H32.8697V31.5094H32.868V31.5111H32.8663V31.5128H32.8646V31.5146H32.8628V31.518V31.5197V31.5214V31.5231V31.5249V31.5266V31.5283V31.53V31.5317V31.5334V31.5351L32.8611 31.5386V31.5403H32.8594V31.5437L32.856 31.5472V31.5489H32.8543V31.5506V31.5523V31.554V31.5557V31.5574V31.5592V31.5609V31.5626V31.5643V31.566V31.5677V31.5694V31.5712V31.5729V31.5746V31.5763V31.578H32.8526V31.5797L32.8491 31.5849H32.8474V31.5883L32.8423 31.5935L32.8388 31.5986L32.8371 31.602H32.8354V31.6055V31.6072H32.8337V31.6089V31.6106H32.832V31.614V31.6158V31.6175H32.8303L32.8285 31.6226H32.8268V31.626L32.82 31.6346H32.8182L32.8131 31.6432H32.8114V31.6449H32.8097V31.6466V31.6483V31.6501V31.6518V31.6535V31.6552V31.6569V31.6586V31.6604L32.7805 31.6947L32.7702 31.7067L32.7616 31.717V31.7187V31.7204V31.7221V31.7238V31.7255V31.7272V31.729V31.7307V31.7324V31.7358V31.7375V31.7393V31.741V31.7427V31.7444V31.7461V31.7478V31.7513V31.753V31.7547C32.7514 31.7684 32.7411 31.7821 32.7325 31.7959L32.7308 31.7993H32.7291L32.7273 31.8044V31.8061V31.8096V31.8113V31.8147V31.8164V31.8181V31.8216V31.8233V31.8267V31.8284V31.8319V31.8336V31.837V31.8387L32.705 31.873V31.8765V31.8799V31.8833V31.8868V31.8902V31.8919V31.8953L32.7016 31.9005L32.6999 31.9039V31.9073V31.9091V31.9125V31.9159V31.9193V31.9228V31.9262V31.9296V31.9331V31.9365H32.6965V31.9399H32.6948V31.9434V31.9468V31.9502V31.9536V31.9571V31.9605V31.9639V31.9674V31.9708V31.9742V31.9777V31.9811V31.9845V31.988V31.9914V31.9931V31.9965V32V32.0034V32.0068V32.0102V32.0137V32.0171V32.0205L32.681 32.0463V32.0497V32.0531V32.0566V32.06V32.0634V32.0668L32.6622 32.1063L32.657 32.1183V32.1217L32.6536 32.1286V32.132V32.1355V32.1406L32.6519 32.1457V32.1509H32.6502V32.1543V32.1578L32.6467 32.1663V32.1698V32.1732L32.6433 32.18L32.6416 32.1852V32.1903H32.6399V32.1955H32.6382V32.1989V32.2023V32.2058V32.2092V32.2126L32.6364 32.2178V32.2212L32.6193 32.2692L32.6141 32.2864V32.2898V32.2933V32.2967V32.3001V32.3035L32.6124 32.307V32.3104L32.6107 32.3138V32.3173V32.3207L32.597 32.3653V32.3687V32.3721V32.3773V32.3807V32.3859V32.3927V32.3996L32.5936 32.4065V32.4099L32.5918 32.415V32.4185V32.4219V32.4253V32.4305V32.4373L32.5901 32.4459L32.5867 32.4562V32.4596V32.4631V32.4665L32.5781 32.5111V32.5145V32.5179V32.5197V32.5231V32.5265V32.5334V32.5437V32.5505V32.5557V32.5591V32.5625V32.566V32.5694V32.5745V32.5763V32.5848V32.5883V32.5917V32.5951V32.5986V32.6054V32.6106V32.614V32.6174V32.6208V32.6243V32.6277V32.6329V32.6363V32.6397V32.6431V32.6466V32.65V32.6534V32.6569V32.6603V32.6637V32.6672V32.6706V32.674V32.6775V32.6809V32.6843V32.6877V32.6912V32.6946V32.698V32.7015V32.7049V32.7083V32.7118V32.7152V32.7186V32.722V32.7255V32.7289V32.7323V32.7358V32.7392V32.7495V32.7529V32.7563V32.7598V32.7615V32.7649V32.7684V32.7718V32.7752V32.7769V32.7804V32.7838V32.7872V32.7906V32.7941V32.7975V32.8027V32.8044V32.8078V32.8112V32.8129V32.8215V32.8284V32.8438V32.8507V32.8558V32.8627V32.8695V32.873V32.8816V32.885V32.8884V32.8918V32.8953V46.2307C32.5781 47.3833 33.5215 48.3267 34.6741 48.3267" fill="#265CA0"/>
<path fill-rule="evenodd" clip-rule="evenodd" d="M24.5633 49.126C23.09 49.126 21.8945 47.9305 21.8945 46.4572C21.8945 44.9839 23.09 43.7884 24.5633 43.7884C26.0367 43.7884 27.2321 44.9839 27.2321 46.4572C27.2321 47.9305 26.0367 49.126 24.5633 49.126Z" fill="#265CA0"/>
<path fill-rule="evenodd" clip-rule="evenodd" d="M40.8317 24.563L47.9788 17.4158C47.6272 17.6834 47.1899 17.8412 46.7165 17.8412H41.6258L36.3843 23.081C36.3723 23.0948 36.3585 23.1068 36.3465 23.1188C36.3345 23.1325 36.3225 23.1445 36.3105 23.1582C36.2985 23.1719 36.2865 23.1857 36.2762 23.1977C36.2642 23.2114 36.2539 23.2251 36.2419 23.2388C36.2316 23.2526 36.2196 23.2663 36.2093 23.28C36.199 23.2937 36.1887 23.3074 36.1785 23.3212C36.1682 23.3349 36.1579 23.3503 36.1476 23.364C36.1373 23.3778 36.1287 23.3932 36.1184 23.4069C36.1081 23.4206 36.0996 23.4361 36.091 23.4515C36.0824 23.467 36.0721 23.4807 36.0635 23.4961C36.055 23.5116 36.0464 23.5253 36.0378 23.5407C36.0292 23.5561 36.0224 23.5699 36.0138 23.5853C36.0052 23.6007 35.9984 23.6162 35.9898 23.6316L35.9675 23.6779C35.9606 23.6934 35.9538 23.7088 35.9469 23.7242C35.94 23.7397 35.9332 23.7551 35.928 23.7705C35.9212 23.786 35.916 23.8014 35.9092 23.8186C35.904 23.834 35.8972 23.8512 35.892 23.8666C35.8869 23.882 35.8817 23.8992 35.8766 23.9146L35.8611 23.9626C35.856 23.9781 35.8526 23.9952 35.8474 24.0107C35.8423 24.0261 35.8389 24.0433 35.8354 24.0604C35.832 24.0776 35.8268 24.093 35.8234 24.1101C35.82 24.1273 35.8166 24.1427 35.8131 24.1599C35.8097 24.177 35.808 24.1925 35.8045 24.2096C35.8011 24.2268 35.7994 24.2422 35.796 24.2594C35.7925 24.2765 35.7908 24.292 35.7891 24.3091C35.7874 24.3263 35.7857 24.3417 35.784 24.3588C35.784 24.376 35.7805 24.3914 35.7805 24.4086C35.7805 24.4257 35.7788 24.4412 35.7771 24.4583C35.7771 24.4755 35.7771 24.4926 35.7754 24.5081C35.7754 24.5252 35.7754 24.5424 35.7754 24.5578C35.7754 24.5732 35.7754 24.5904 35.7754 24.6075C35.7754 24.6247 35.7754 24.6419 35.7771 24.6573C35.7771 24.6744 35.7788 24.6899 35.7805 24.707C35.7805 24.7242 35.7823 24.7396 35.784 24.7568C35.784 24.7739 35.7874 24.7894 35.7891 24.8065C35.7908 24.8237 35.7925 24.8391 35.796 24.8562C35.7977 24.8734 35.8011 24.8888 35.8045 24.906C35.808 24.9231 35.8097 24.9386 35.8131 24.9557C35.8166 24.9729 35.82 24.9883 35.8234 25.0055C35.8268 25.0226 35.8303 25.0381 35.8354 25.0552C35.8389 25.0724 35.844 25.0878 35.8474 25.1049C35.8526 25.1204 35.856 25.1375 35.8611 25.1547L35.8766 25.2027C35.8817 25.2199 35.8869 25.2353 35.892 25.2507C35.8972 25.2662 35.904 25.2833 35.9092 25.2988C35.9143 25.3142 35.9212 25.3296 35.928 25.3468C35.9349 25.3622 35.94 25.3777 35.9469 25.3948C35.9538 25.4102 35.9606 25.4257 35.9675 25.4411L35.9898 25.4874C35.9966 25.5029 36.0052 25.5183 36.0138 25.5337C36.0224 25.5492 36.0292 25.5646 36.0378 25.5783C36.0464 25.5938 36.055 25.6092 36.0635 25.6229C36.0721 25.6384 36.0807 25.6521 36.091 25.6675C36.0996 25.683 36.1098 25.6967 36.1184 25.7121C36.1287 25.7258 36.1373 25.7413 36.1476 25.755C36.1579 25.7687 36.1682 25.7842 36.1785 25.7979C36.1887 25.8116 36.199 25.8253 36.2093 25.839C36.2196 25.8528 36.2316 25.8665 36.2419 25.8802C36.2539 25.8939 36.2642 25.9076 36.2762 25.9214C36.2882 25.9351 36.3002 25.9488 36.3105 25.9608C36.3225 25.9745 36.3345 25.9865 36.3465 26.0003C36.3585 26.014 36.3723 26.026 36.3843 26.0397L41.6258 31.2813H46.7165C47.1899 31.2813 47.6272 31.4391 47.9788 31.7066L40.8317 24.5595V24.563Z" fill="#265CA0"/>
<path fill-rule="evenodd" clip-rule="evenodd" d="M49.1257 24.563C49.1257 26.0363 47.9302 27.2318 46.4569 27.2318C44.9836 27.2318 43.7881 26.0363 43.7881 24.563C43.7881 23.0896 44.9836 21.8942 46.4569 21.8942C47.9302 21.8942 49.1257 23.0896 49.1257 24.563Z" fill="#265CA0"/>
<path fill-rule="evenodd" clip-rule="evenodd" d="M8.29458 24.563L1.14746 31.7101C1.49907 31.4426 1.93644 31.2848 2.40983 31.2848H7.50046L12.742 26.0449C12.7557 26.0329 12.7677 26.0192 12.7798 26.0055C12.7918 25.9917 12.8038 25.9797 12.8158 25.966C12.8278 25.9523 12.8398 25.9403 12.8501 25.9266C12.8621 25.9128 12.8724 25.8991 12.8844 25.8854C12.8947 25.8717 12.9067 25.858 12.917 25.8442C12.9273 25.8305 12.9376 25.8168 12.9478 25.8031C12.9581 25.7894 12.9684 25.7739 12.9787 25.7602C12.989 25.7465 12.9993 25.731 13.0079 25.7173C13.0182 25.7019 13.0267 25.6882 13.0353 25.6727C13.0439 25.6573 13.0542 25.6436 13.0628 25.6281C13.0713 25.6127 13.0799 25.5973 13.0885 25.5835C13.0971 25.5681 13.1056 25.5527 13.1125 25.5389C13.1211 25.5235 13.1279 25.5081 13.1365 25.4926L13.1588 25.4463C13.1657 25.4309 13.1725 25.4154 13.1794 25.4C13.1863 25.3846 13.1931 25.3691 13.1983 25.352C13.2051 25.3365 13.2103 25.3211 13.2171 25.304C13.2223 25.2885 13.2291 25.2714 13.2343 25.2559C13.2394 25.2405 13.2446 25.2233 13.2497 25.2079L13.2651 25.1599C13.2703 25.1444 13.2737 25.1273 13.2789 25.1101C13.284 25.0947 13.2874 25.0776 13.2909 25.0604C13.2943 25.0433 13.2995 25.0278 13.3029 25.0107C13.3063 24.9935 13.3097 24.9781 13.3132 24.9609C13.3166 24.9438 13.32 24.9283 13.3217 24.9112C13.3252 24.894 13.3269 24.8786 13.3303 24.8614C13.332 24.8443 13.3355 24.8289 13.3372 24.8117C13.3389 24.7946 13.3406 24.7791 13.3423 24.762C13.3423 24.7448 13.3458 24.7294 13.3458 24.7122C13.3458 24.6951 13.3475 24.6779 13.3492 24.6625C13.3492 24.6453 13.3492 24.6282 13.3509 24.6127C13.3509 24.5956 13.3509 24.5784 13.3509 24.563C13.3509 24.5476 13.3509 24.5287 13.3509 24.5133C13.3509 24.4961 13.3509 24.479 13.3492 24.4635C13.3492 24.4464 13.3475 24.4309 13.3458 24.4138C13.3458 24.3966 13.344 24.3795 13.3423 24.364C13.3423 24.3469 13.3389 24.3297 13.3372 24.3143C13.3355 24.2971 13.3338 24.2817 13.3303 24.2646C13.3286 24.2474 13.3252 24.232 13.3217 24.2148C13.3183 24.1977 13.3166 24.1822 13.3132 24.1651C13.3097 24.1479 13.3063 24.1325 13.3029 24.1153C13.2995 24.0982 13.296 24.0828 13.2909 24.0656C13.2874 24.0485 13.2823 24.033 13.2789 24.0159C13.2737 24.0004 13.2703 23.9833 13.2651 23.9678L13.2497 23.9198C13.2446 23.9044 13.2394 23.8872 13.2343 23.8718C13.2291 23.8564 13.2223 23.8392 13.2171 23.8238C13.212 23.8083 13.2051 23.7929 13.1983 23.7757C13.1914 23.7603 13.1845 23.7449 13.1794 23.7294C13.1725 23.714 13.1657 23.6986 13.1588 23.6831L13.1365 23.6368C13.1296 23.6214 13.1211 23.6059 13.1125 23.5905C13.1039 23.5751 13.0971 23.5596 13.0885 23.5459C13.0799 23.5305 13.0713 23.515 13.0628 23.5013C13.0542 23.4859 13.0456 23.4722 13.0353 23.4567C13.0267 23.4413 13.0164 23.4276 13.0079 23.4121C12.9993 23.3984 12.989 23.383 12.9787 23.3692C12.9684 23.3555 12.9581 23.3401 12.9478 23.3264C12.9376 23.3126 12.9273 23.2989 12.917 23.2852C12.9067 23.2715 12.8947 23.2578 12.8844 23.244C12.8724 23.2303 12.8621 23.2166 12.8501 23.2029C12.8381 23.1891 12.8261 23.1754 12.8158 23.1634C12.8038 23.1497 12.7918 23.1377 12.7798 23.124C12.7677 23.1103 12.7557 23.0982 12.742 23.0862L7.50046 17.8447H2.40983C1.93644 17.8447 1.49907 17.6869 1.14746 17.4193L8.29458 24.5664V24.563Z" fill="#265CA0"/>
<path fill-rule="evenodd" clip-rule="evenodd" d="M0 24.563C0 26.0363 1.19547 27.2318 2.66881 27.2318C4.14214 27.2318 5.33761 26.0363 5.33761 24.563C5.33761 23.0896 4.14214 21.8942 2.66881 21.8942C1.19547 21.8942 0 23.0896 0 24.563Z" fill="#265CA0"/>
<path d="M146.269 6.10352e-05H146.221C145.345 6.10352e-05 144.564 0.389405 144.029 1.12007L134.335 14.5653L124.641 1.12007C124.154 0.389405 123.277 6.10352e-05 122.497 6.10352e-05H122.351C120.89 6.10352e-05 119.672 1.21783 119.672 2.67916V31.422C119.672 32.8833 120.89 34.1011 122.351 34.1011C123.812 34.1011 125.08 32.8833 125.08 31.422V10.912L132.047 20.6559C132.582 21.3865 133.41 21.7759 134.287 21.7759H134.385C135.261 21.7759 136.041 21.3865 136.577 20.6559L143.592 10.912V31.422C143.592 32.8833 144.761 34.1011 146.271 34.1011C147.78 34.1011 149 32.8833 149 31.422V2.67916C149 1.21783 147.732 0.0480858 146.271 6.10352e-05M116.152 20.023V2.67916C116.152 1.16981 114.983 6.10352e-05 113.473 6.10352e-05C111.964 6.10352e-05 110.744 1.16981 110.744 2.67916V20.023C110.744 24.7963 106.896 28.6949 102.072 28.6949C97.2494 28.6949 93.4006 24.798 93.4006 20.023V2.67916C93.4006 1.16981 92.1331 6.10352e-05 90.6717 6.10352e-05C89.2104 6.10352e-05 87.9926 1.16981 87.9926 2.67916V20.023C87.9926 27.7687 94.229 34.1028 102.072 34.1028C109.916 34.1028 116.151 27.7704 116.151 20.023H116.152ZM61.5824 34.1011C63.0918 34.1011 64.3113 32.9314 64.3113 31.422V19.7297H76.9298V31.422C76.9298 32.9331 78.0995 34.1011 79.6089 34.1011C81.1182 34.1011 82.3377 32.9314 82.3377 31.422V2.67916C82.3377 1.16981 81.1199 6.10352e-05 79.6089 6.10352e-05C78.0978 6.10352e-05 76.9298 1.16981 76.9298 2.67916V14.3715H64.3113V2.67916C64.3113 1.16981 63.0935 6.10352e-05 61.5824 6.10352e-05C60.0714 6.10352e-05 58.9033 1.16981 58.9033 2.67916V31.422C58.9033 32.9331 60.0731 34.1011 61.5824 34.1011Z" fill="#265CA0"/>
<path d="M141.343 47.8156C142.171 48.469 143.492 49.2529 145.061 49.2683C146.092 49.2683 147.037 48.963 147.749 48.4399C148.474 47.9168 148.997 47.1175 148.997 46.1862C148.997 45.7351 148.867 45.2977 148.649 44.9495C148.315 44.4092 147.792 44.0319 147.196 43.742C146.615 43.4642 145.932 43.2738 145.191 43.1297H145.162C144.378 42.9839 143.725 42.7524 143.346 42.49C143.157 42.3596 143.027 42.2258 142.953 42.1092C142.881 41.9926 142.852 41.8776 142.852 41.7027C142.852 41.3974 143.011 41.0749 143.404 40.7851C143.797 40.4952 144.377 40.2911 145.032 40.2911C145.919 40.2911 146.63 40.7268 147.371 41.2207C147.72 41.4557 148.184 41.3545 148.402 41.0029C148.635 40.6684 148.533 40.2036 148.2 39.9721C147.459 39.4918 146.428 38.8092 145.034 38.8092C144.09 38.8092 143.204 39.0853 142.521 39.5793C141.852 40.0733 141.358 40.828 141.358 41.7027C141.358 42.1384 141.475 42.5483 141.692 42.8965C142.012 43.4041 142.492 43.7712 143.044 44.0319C143.596 44.2926 144.234 44.4676 144.917 44.6013H144.946C145.804 44.7609 146.516 45.0078 146.936 45.284C147.154 45.4298 147.284 45.5738 147.371 45.7231C147.459 45.8688 147.502 45.9992 147.502 46.1879C147.502 46.5515 147.313 46.9168 146.877 47.2358C146.442 47.5549 145.788 47.7727 145.061 47.7727C144.03 47.7864 142.926 47.1775 142.286 46.6527C141.967 46.392 141.487 46.4349 141.226 46.7539C140.979 47.0763 141.022 47.5549 141.343 47.8173M135.662 43.7043H133.875V40.7113H135.662C136.49 40.7113 137.158 41.3802 137.158 42.2224C137.158 43.0645 136.49 43.7043 135.662 43.7043ZM138.684 47.5686C138.655 47.4228 138.612 47.1467 138.626 46.711C138.626 46.1004 138.437 45.5635 138.147 45.1416C138.001 44.9238 137.828 44.7488 137.64 44.6048C138.336 44.0233 138.773 43.1812 138.773 42.2224C138.773 40.4935 137.393 39.0991 135.665 39.0991H133.065C132.614 39.0991 132.266 39.4472 132.266 39.8983V48.469C132.266 48.9047 132.614 49.2683 133.065 49.2683C133.516 49.2683 133.878 48.9047 133.878 48.469V45.3166H135.592C135.722 45.3457 136.099 45.4624 136.405 45.6647C136.58 45.7814 136.753 45.9255 136.84 46.0867C136.941 46.2462 137 46.4349 137.015 46.711C137.015 47.5103 137.116 48.0334 137.321 48.4536C137.437 48.6577 137.597 48.8464 137.785 48.9613C137.989 49.0917 138.207 49.1208 138.351 49.1208H138.367C138.513 49.1208 138.627 49.0917 138.686 49.0779C139.108 48.9321 139.339 48.4828 139.193 48.0608C139.106 47.8139 138.917 47.6389 138.686 47.5669L138.684 47.5686ZM124.361 49.2683L124.374 49.2529C124.374 49.2529 124.374 49.2683 124.404 49.2683H129.11C129.532 49.2683 129.909 48.9047 129.909 48.469C129.909 48.0334 129.532 47.6561 129.11 47.6561H125.174V44.9838H128.558C128.993 44.9838 129.357 44.6202 129.357 44.1708C129.357 43.7489 128.993 43.3716 128.558 43.3716H125.174V40.713H129.11C129.532 40.713 129.909 40.3494 129.909 39.9001C129.909 39.4507 129.532 39.1008 129.11 39.1008H124.361C123.91 39.1008 123.561 39.449 123.561 39.9001V48.4708C123.561 48.9064 123.91 49.27 124.361 49.27V49.2683ZM116.706 40.7113H118.493C119.335 40.7113 119.989 41.3802 120.004 42.2224C119.99 43.0354 119.335 43.7043 118.493 43.7043H116.706V40.7113ZM121.616 42.2224C121.616 40.4935 120.222 39.0991 118.493 39.0991H115.893C115.457 39.0991 115.094 39.4472 115.094 39.8983V48.469C115.094 48.9047 115.457 49.2683 115.893 49.2683C116.329 49.2683 116.706 48.9047 116.706 48.469V45.3166H118.493C120.222 45.3166 121.616 43.9221 121.616 42.2224ZM109.588 46.5652C108.977 47.2187 108.164 47.6115 107.293 47.6115C106.363 47.6115 105.55 47.2187 104.94 46.5652C104.329 45.9409 103.952 45.025 103.952 44.037C103.952 43.0491 104.329 42.1349 104.94 41.4952C105.55 40.8417 106.363 40.4643 107.293 40.4643C108.164 40.4643 108.977 40.8417 109.588 41.4952C110.183 42.1349 110.576 43.0491 110.576 44.037C110.576 45.025 110.183 45.9409 109.588 46.5652ZM107.293 38.8092C105.899 38.8092 104.621 39.4044 103.734 40.3631C102.834 41.3219 102.295 42.5997 102.295 44.0388C102.295 45.4778 102.832 46.7693 103.734 47.7144C104.621 48.6577 105.899 49.2683 107.293 49.2683C108.687 49.2683 109.907 48.6577 110.765 47.7144C111.665 46.7693 112.231 45.4778 112.231 44.0388C112.231 42.5997 111.665 41.3219 110.765 40.3631C109.907 39.4044 108.629 38.8092 107.293 38.8092ZM95.9488 49.2683H100.698C101.12 49.2683 101.497 48.9047 101.497 48.469C101.497 48.0334 101.12 47.6561 100.698 47.6561H96.7618V39.9001C96.7618 39.4644 96.3982 39.1008 95.9488 39.1008C95.4995 39.1008 95.1496 39.4644 95.1496 39.9001V48.4708C95.1496 48.9064 95.4978 49.27 95.9488 49.27V49.2683ZM87.3335 49.2683L87.349 49.2529C87.349 49.2529 87.349 49.2683 87.3781 49.2683H92.0846C92.5065 49.2683 92.8838 48.9047 92.8838 48.469C92.8838 48.0334 92.5065 47.6561 92.0846 47.6561H88.1482V44.9838H91.5323C91.9679 44.9838 92.3316 44.6202 92.3316 44.1708C92.3316 43.7489 91.9679 43.3716 91.5323 43.3716H88.1482V40.713H92.0846C92.5065 40.713 92.8838 40.3494 92.8838 39.9001C92.8838 39.4507 92.5065 39.1008 92.0846 39.1008H87.3353C86.8842 39.1008 86.536 39.449 86.536 39.9001V48.4708C86.536 48.9064 86.8842 49.27 87.3353 49.27L87.3335 49.2683ZM79.4026 49.1363C79.4455 49.1654 79.5038 49.2083 79.5329 49.2237H79.5467C79.5467 49.2237 79.5621 49.2237 79.5621 49.2374C79.5913 49.2374 79.6496 49.2512 79.6787 49.2666H79.8537C79.8966 49.2803 79.9412 49.2803 79.9995 49.2666H80.0286C80.0715 49.2512 80.1007 49.2374 80.1453 49.2374C80.1555 49.2283 80.1653 49.2237 80.1744 49.2237C80.2173 49.2083 80.2619 49.1654 80.291 49.1517L80.3202 49.138C80.3494 49.1088 80.3785 49.0951 80.4077 49.0659C80.418 49.0568 80.4277 49.0425 80.4368 49.0231C80.4523 48.9939 80.4952 48.9647 80.5089 48.9356C80.518 48.9356 80.5226 48.931 80.5226 48.9219C80.5518 48.8927 80.5655 48.8344 80.5809 48.8052L84.1691 40.322C84.3286 39.9292 84.1399 39.4507 83.7334 39.2912C83.3406 39.1162 82.8621 39.3049 82.6871 39.7131L79.8554 46.4383L77.0236 39.7131C76.8487 39.3066 76.3839 39.1179 75.9928 39.2912C75.5709 39.4507 75.3822 39.9309 75.5572 40.322L79.1162 48.8052C79.1453 48.8344 79.1745 48.8927 79.1882 48.9219C79.1882 48.9356 79.2019 48.9356 79.2019 48.9356C79.2173 48.9647 79.2448 48.9939 79.274 49.0231C79.274 49.0522 79.2877 49.0522 79.2877 49.0659C79.3305 49.0951 79.3597 49.1088 79.3889 49.138H79.4026V49.1363ZM68.2625 49.2683L68.2763 49.2529C68.2763 49.2529 68.2763 49.2683 68.3054 49.2683H73.0119C73.4338 49.2683 73.8111 48.9047 73.8111 48.469C73.8111 48.0334 73.4338 47.6561 73.0119 47.6561H69.0755V44.9838H72.4596C72.8952 44.9838 73.2588 44.6202 73.2588 44.1708C73.2588 43.7489 72.8952 43.3716 72.4596 43.3716H69.0755V40.713H73.0119C73.4338 40.713 73.8111 40.3494 73.8111 39.9001C73.8111 39.4507 73.4338 39.1008 73.0119 39.1008H68.2625C67.8115 39.1008 67.4633 39.449 67.4633 39.9001V48.4708C67.4633 48.9064 67.8115 49.27 68.2625 49.27V49.2683ZM59.3574 40.7113H60.2578C62.1754 40.7113 63.7156 42.2653 63.7156 44.1691C63.7156 46.073 62.1754 47.6406 60.2578 47.6561H59.3574V40.713V40.7113ZM58.5444 49.2683H60.2578C63.0604 49.2683 65.3279 46.9871 65.3279 44.1691C65.3279 41.3511 63.0621 39.0991 60.2578 39.0991H58.5444C58.0933 39.0991 57.7451 39.4472 57.7451 39.8983V48.469C57.7451 48.9047 58.0933 49.2683 58.5444 49.2683Z" fill="#265CA0"/>
</svg>
